<?xml version="1.0" standalone="no"?>
<!DOCTYPE svg PUBLIC "-//W3C//DTD SVG 20010904//EN"
 "http://www.w3.org/TR/2001/REC-SVG-20010904/DTD/svg10.dtd">
<svg version="1.0" xmlns="http://www.w3.org/2000/svg"
 width="512.000000pt" height="512.000000pt" viewBox="0 0 512.000000 512.000000"
 preserveAspectRatio="xMidYMid meet">
<metadata>
Created by potrace 1.11, written by Peter Selinger 2001-2013
</metadata>
<g transform="translate(0.000000,512.000000) scale(0.100000,-0.100000)"
fill="#000000" stroke="none">
<path d="M1215 4160 c3 -5 8 -10 11 -10 2 0 4 5 4 10 0 6 -5 10 -11 10 -5 0
-7 -4 -4 -10z"/>
<path d="M1215 4127 c-23 -22 -31 -35 -19 -29 17 9 25 8 34 -3 7 -9 10 -18 6
-22 -3 -3 -6 0 -6 8 0 11 -2 11 -10 -1 -7 -12 -10 -12 -10 -1 0 7 -6 11 -15 8
-8 -4 -17 -2 -21 4 -4 7 -10 6 -18 0 -7 -6 -16 -8 -19 -4 -4 3 -7 1 -7 -6 0
-8 7 -11 15 -7 24 9 17 -11 -12 -33 -14 -12 -37 -36 -50 -54 -16 -22 -31 -31
-46 -30 -21 3 -21 2 2 -7 l24 -10 -21 -23 c-12 -13 -22 -28 -22 -34 0 -6 -10
-18 -22 -27 -13 -9 -17 -14 -10 -10 11 5 11 2 0 -15 -7 -12 -17 -21 -22 -21
-4 0 -3 6 3 13 8 10 7 19 -5 33 -15 18 -15 18 -5 -2 12 -26 -9 -51 -31 -38 -8
5 -6 -3 5 -19 20 -31 22 -41 5 -31 -7 5 -21 9 -30 9 -16 2 -17 -1 -4 -20 8
-12 11 -27 6 -35 -6 -9 -10 -7 -15 9 -7 22 -27 30 -23 9 2 -7 -3 -12 -9 -10
-7 1 -13 -2 -13 -8 0 -13 13 -13 27 1 7 7 12 4 16 -11 3 -14 0 -23 -10 -27
-12 -5 -12 -7 -1 -14 9 -6 9 -9 1 -9 -20 0 -24 18 -7 28 14 8 12 10 -11 10
-19 0 -23 -3 -14 -9 8 -5 10 -9 6 -9 -4 0 -3 -9 3 -19 7 -14 7 -22 0 -26 -6
-4 -8 -10 -5 -15 7 -11 -22 -7 -32 5 -4 4 -2 5 6 0 10 -6 12 -4 6 5 -6 9 -4
11 5 5 9 -6 11 -4 5 5 -6 9 -4 11 6 5 8 -5 11 -4 6 1 -5 5 -12 9 -15 9 -4 0
-12 4 -19 8 -7 5 -16 0 -23 -13 -11 -20 -5 -44 9 -36 4 3 13 -4 20 -16 8 -12
8 -17 1 -13 -6 4 -17 1 -26 -5 -11 -10 -12 -16 -3 -27 9 -11 9 -12 -4 -7 -12
4 -15 1 -12 -15 2 -12 0 -19 -4 -16 -12 7 -34 -22 -27 -34 8 -12 -34 -42 -46
-35 -5 3 -19 7 -32 8 -25 3 -34 -29 -10 -38 7 -3 13 -2 13 2 -4 26 2 33 17 18
8 -9 21 -13 27 -9 7 3 8 2 4 -2 -7 -9 -28 -15 -54 -17 -19 -2 -24 -27 -6 -36
11 -6 12 -11 4 -16 -6 -4 -11 -2 -11 4 0 6 -4 9 -9 5 -5 -3 -12 -1 -16 4 -3 6
-12 8 -20 5 -8 -4 -13 -10 -10 -14 7 -11 -22 -33 -33 -26 -5 3 -7 -12 -5 -34
3 -26 1 -40 -7 -40 -6 0 -8 6 -4 13 4 6 -5 1 -19 -12 -15 -14 -24 -27 -21 -30
3 -3 10 1 15 9 8 12 9 12 7 -4 -2 -10 3 -21 11 -24 9 -3 11 0 6 8 -6 9 -4 11
5 5 10 -6 10 -11 -3 -20 -9 -7 -14 -15 -10 -19 4 -4 -1 -4 -11 0 -15 6 -17 4
-11 -7 8 -12 6 -12 -8 0 -19 15 -24 2 -6 -16 8 -8 8 -13 0 -18 -6 -3 -10 -1
-9 6 2 6 -2 13 -9 16 -7 2 -10 -3 -8 -14 2 -10 4 -22 4 -26 1 -5 6 -5 13 -1 7
4 8 3 4 -5 -4 -6 -11 -9 -16 -6 -5 3 -14 -3 -20 -12 -10 -16 -11 -16 -5 2 12
37 14 56 4 50 -18 -12 -8 8 15 30 15 14 27 18 29 12 2 -6 6 -5 9 4 4 11 -1 15
-22 14 -23 0 -26 -2 -17 -14 10 -12 9 -14 -6 -8 -11 4 -16 3 -12 -3 3 -6 1
-10 -5 -10 -8 0 -10 -9 -6 -26 4 -15 3 -23 -3 -20 -18 11 -42 -6 -36 -25 4
-11 3 -18 -2 -17 -4 2 -10 -1 -12 -7 -2 -5 -12 -16 -23 -24 -11 -7 -17 -20
-14 -28 5 -11 2 -13 -11 -9 -10 4 -14 4 -10 0 10 -11 -33 -65 -46 -58 -9 5 -9
4 -1 -5 13 -14 7 -54 -7 -46 -4 3 -6 13 -3 23 5 13 4 14 -4 3 -5 -7 -16 -18
-23 -23 -11 -8 -10 -9 3 -4 10 3 21 -1 26 -11 6 -11 11 -12 16 -4 4 6 13 11
19 11 7 0 4 -5 -6 -11 -10 -6 -14 -15 -10 -22 5 -9 2 -8 -9 0 -8 7 -19 9 -23
5 -5 -4 -5 -1 0 7 6 10 4 12 -4 7 -6 -4 -17 -3 -24 3 -9 7 -17 7 -27 -1 -13
-8 -12 -9 2 -5 19 7 45 -18 29 -27 -5 -3 -12 0 -14 6 -4 10 -6 10 -6 0 -1 -8
-6 -10 -13 -6 -9 5 -9 2 1 -9 14 -17 26 -24 17 -9 -3 5 0 9 7 9 7 0 20 4 29 8
11 4 18 3 18 -5 0 -6 -4 -8 -10 -5 -13 8 -13 -1 0 -25 7 -14 6 -18 -5 -16 -8
1 -18 6 -22 11 -4 4 -2 5 5 1 6 -4 12 -3 12 2 0 17 -13 22 -27 10 -11 -9 -11
-14 4 -32 17 -19 17 -20 1 -7 -19 14 -25 2 -8 -15 7 -7 6 -11 -4 -11 -8 0 -13
4 -10 8 2 4 0 10 -6 14 -5 3 -10 1 -10 -4 0 -6 -6 -11 -12 -11 -8 1 -5 8 7 18
25 22 30 43 8 35 -9 -4 -14 -2 -10 3 3 5 -2 10 -12 10 -10 0 -18 -6 -18 -12 0
-7 6 -10 13 -7 8 3 11 -2 9 -14 -2 -10 -4 -20 -4 -23 -1 -3 -6 2 -11 10 -8 13
-10 12 -10 -2 0 -10 3 -18 8 -18 4 0 8 -11 8 -25 1 -14 -3 -25 -8 -25 -6 0 -8
-9 -5 -20 3 -10 2 -19 -2 -18 -18 2 -32 -3 -27 -11 3 -5 -1 -11 -9 -15 -9 -3
-12 -12 -9 -23 5 -15 4 -15 -4 -3 -6 8 -9 17 -6 21 2 4 -5 9 -16 12 -13 3 -18
10 -14 21 3 9 2 16 -3 16 -5 0 -9 -9 -10 -20 -1 -11 3 -20 8 -20 6 0 7 -5 4
-10 -4 -7 -14 -6 -28 1 -20 9 -21 9 -4 -5 10 -8 18 -17 17 -21 -1 -4 2 -10 6
-13 4 -4 3 0 -1 8 -8 13 -7 13 8 1 11 -9 17 -10 17 -2 0 6 -5 11 -11 11 -5 0
-7 5 -4 11 10 15 17 4 21 -33 3 -27 1 -30 -7 -15 -10 17 -29 15 -29 -4 0 -6 4
-8 8 -5 5 3 9 -1 9 -9 0 -11 -4 -12 -13 -4 -8 7 -19 7 -31 1 -10 -5 -25 -7
-33 -5 -10 3 -9 1 2 -7 10 -6 19 -9 22 -8 2 2 14 -6 26 -17 12 -11 24 -19 26
-17 14 8 25 -1 22 -20 -2 -13 -8 -23 -15 -23 -6 0 -15 -4 -20 -9 -5 -5 -3 -6
5 -2 17 10 15 -9 -3 -24 -8 -7 -15 -19 -15 -26 0 -8 -4 -14 -10 -14 -21 0 -9
-18 15 -24 l26 -7 -21 -28 c-18 -26 -26 -51 -16 -51 2 0 61 -18 130 -39 l127
-39 22 33 c19 27 26 31 41 23 16 -9 16 -11 1 -29 -19 -21 -14 -49 10 -49 8 0
15 3 15 8 0 4 8 17 18 30 12 15 24 21 35 16 16 -6 16 -8 2 -30 -20 -30 -19
-42 3 -46 12 -3 31 18 67 77 27 44 52 82 55 85 3 3 11 16 18 30 22 44 38 69
55 88 10 10 17 23 17 28 0 6 8 19 18 30 9 10 23 32 30 47 6 15 17 25 22 22 5
-3 7 0 4 8 -3 8 1 21 8 28 11 12 72 107 113 177 56 96 88 141 96 136 5 -3 9
-2 8 3 -4 23 2 35 16 29 12 -4 13 -2 6 12 -7 14 -5 22 9 32 10 8 17 17 14 22
-3 4 0 8 7 8 7 0 9 3 6 6 -10 11 33 59 54 60 13 1 18 -3 15 -13 -3 -8 2 -17
14 -21 22 -8 24 -24 4 -35 -8 -4 -14 -13 -14 -20 0 -7 4 -6 10 3 5 8 12 11 16
7 4 -3 1 -14 -7 -24 -9 -11 -10 -14 -1 -9 7 4 12 2 12 -6 0 -8 -6 -20 -12 -27
-10 -11 -10 -13 0 -7 12 7 14 -14 15 -131 0 -40 11 -41 60 -8 30 21 37 23 37
10 0 -13 4 -14 23 -4 13 7 8 -1 -12 -18 -44 -37 -27 -50 22 -17 30 20 40 22
50 13 11 -11 10 -16 -7 -33 -29 -29 -1 -34 37 -5 17 12 37 22 44 22 7 0 13 5
13 10 0 5 7 7 15 3 8 -3 14 -1 12 3 -1 5 2 8 6 8 5 -1 13 6 18 16 6 9 14 15
20 12 5 -4 9 -1 9 5 0 7 7 9 16 6 8 -3 12 -2 9 4 -3 5 4 14 15 20 11 6 20 7
20 3 0 -4 5 0 11 10 5 9 17 17 24 17 8 0 15 5 15 11 0 5 4 8 9 4 5 -3 12 -1
16 5 3 6 20 17 37 26 16 9 27 11 24 5 -4 -6 -2 -11 3 -11 6 0 11 -4 11 -10 0
-5 -7 -6 -17 -3 -9 4 -14 2 -10 -3 3 -6 2 -16 -4 -24 -6 -10 -9 -11 -9 -2 0 6
-5 12 -11 12 -6 0 -8 -8 -4 -19 4 -13 -2 -25 -19 -39 -14 -10 -22 -23 -18 -27
4 -5 1 -5 -5 -1 -7 4 -22 2 -34 -5 -17 -9 -20 -8 -16 3 2 7 10 12 16 11 6 -2
11 2 11 8 0 5 5 7 12 3 7 -4 8 -3 4 4 -5 8 -1 10 10 5 13 -5 16 -3 11 10 -4
12 -2 14 10 10 10 -4 14 -2 11 7 -2 7 -12 14 -21 16 -9 1 -15 -1 -12 -6 7 -11
-32 -43 -45 -35 -6 3 -10 3 -9 -2 1 -4 -1 -16 -6 -26 -6 -15 -10 -15 -24 -5
-14 11 -14 11 -4 -3 7 -9 10 -19 6 -23 -4 -4 -1 -11 7 -16 23 -15 37 -11 17 4
-12 9 -14 16 -8 21 6 3 11 0 11 -7 0 -10 2 -10 9 1 5 8 14 10 21 6 9 -5 11 -4
6 3 -4 7 -5 12 -2 12 3 0 10 -10 17 -21 8 -16 8 -20 0 -14 -7 4 -18 1 -27 -5
-11 -10 -12 -16 -2 -29 10 -13 10 -14 -1 -4 -7 6 -20 9 -29 6 -10 -4 -13 -2
-8 5 4 7 2 12 -3 12 -14 0 -14 -13 0 -27 8 -8 8 -13 0 -17 -6 -4 -11 -13 -11
-19 1 -7 10 -1 20 12 11 13 20 19 20 13 0 -5 -7 -15 -15 -22 -8 -7 -12 -17 -8
-24 3 -6 0 -6 -8 2 -18 17 -30 15 -23 -3 4 -10 0 -15 -12 -16 -12 0 -14 -3 -6
-6 10 -4 8 -9 -7 -20 -12 -8 -19 -18 -16 -23 3 -5 -8 -16 -24 -25 -22 -11 -29
-20 -25 -33 5 -13 4 -14 -4 -3 -10 14 4 50 17 49 28 -2 33 2 20 19 -9 11 -10
14 -2 9 9 -5 11 -2 7 11 -5 15 -4 16 5 3 10 -14 12 -13 15 10 0 6 8 15 16 20
13 8 13 10 0 10 -10 0 -7 5 7 15 22 15 22 45 1 45 -7 0 -6 -5 1 -13 6 -8 8
-17 5 -20 -9 -8 -33 16 -26 27 3 5 0 6 -7 1 -9 -5 -10 -10 -2 -18 15 -15 14
-30 -1 -21 -10 6 -10 5 -1 -7 9 -11 7 -19 -13 -36 -13 -12 -24 -19 -24 -16 0
3 -7 0 -15 -7 -10 -8 -13 -20 -9 -34 6 -18 5 -19 -8 -8 -12 10 -18 9 -28 -3
-9 -10 -9 -15 -1 -15 6 0 11 5 11 11 0 5 5 7 11 3 8 -4 8 -9 0 -17 -6 -6 -11
-16 -11 -22 0 -5 5 -3 10 5 7 11 10 11 10 2 0 -15 -38 -31 -64 -26 -10 2 -16
1 -12 -3 3 -3 0 -13 -7 -22 -11 -14 -10 -14 6 -2 10 8 17 9 17 3 0 -6 -4 -14
-10 -17 -5 -3 -10 -13 -10 -22 0 -18 15 -8 15 10 0 7 9 10 20 9 16 -3 17 -1 6
11 -8 10 -9 17 -1 22 5 3 10 4 10 0 0 -3 10 -1 23 5 l22 11 -22 -19 c-12 -11
-20 -22 -17 -25 3 -3 -3 -10 -15 -16 -13 -7 -18 -18 -16 -32 4 -17 2 -19 -11
-8 -8 6 -17 9 -21 5 -4 -3 2 -13 13 -21 15 -12 16 -14 2 -9 -13 4 -16 1 -13
-15 3 -18 1 -20 -16 -11 -24 13 -25 22 -1 13 10 -4 14 -2 9 3 -5 5 -22 9 -39
10 -21 1 -26 -1 -17 -7 13 -8 5 -13 -14 -10 -5 1 -6 -3 -3 -8 3 -5 3 -16 0
-25 -5 -12 -11 -13 -24 -6 -13 7 -21 6 -26 -2 -4 -7 -4 -10 1 -6 4 4 15 3 25
-2 15 -8 41 9 48 33 1 4 5 6 10 5 4 -2 6 -6 4 -10 -2 -8 14 -12 31 -9 5 1 6
-3 2 -9 -4 -7 -12 -7 -25 0 -13 7 -21 6 -29 -4 -14 -17 5 -35 32 -31 9 2 15 0
12 -4 -6 -11 -46 -7 -69 6 -16 9 -23 7 -39 -14 -11 -13 -26 -22 -33 -19 -8 3
-13 2 -13 -2 3 -20 -2 -33 -11 -27 -5 3 -10 1 -10 -4 0 -16 20 -13 26 4 4 9
14 14 23 13 9 -2 15 3 13 10 -1 6 1 11 5 11 5 -1 15 -1 23 0 13 1 13 2 0 11
-8 5 -10 10 -4 10 6 0 18 -8 25 -17 12 -14 12 -16 0 -8 -11 6 -13 4 -7 -10 5
-14 4 -16 -7 -7 -8 7 -17 9 -20 5 -4 -3 1 -12 11 -20 15 -12 14 -13 -8 -2 -28
14 -30 14 -48 -13 -7 -10 -17 -16 -22 -13 -5 3 -16 -5 -24 -17 -14 -20 -14
-24 1 -41 15 -16 15 -19 3 -28 -8 -5 -20 -7 -27 -4 -7 2 -15 0 -18 -5 -4 -6 1
-10 10 -10 9 0 13 -4 10 -10 -3 -5 -2 -10 4 -10 5 0 12 6 14 13 4 9 6 9 6 0 1
-7 8 -13 16 -13 14 0 18 -10 13 -27 -2 -5 -7 -7 -11 -5 -5 1 -6 -2 -2 -8 4 -6
2 -17 -4 -24 -9 -11 -7 -15 10 -19 17 -5 19 -9 9 -26 -8 -16 -8 -22 2 -26 7
-2 45 -14 83 -25 39 -12 77 -24 85 -27 8 -3 20 -7 25 -8 6 -2 22 -6 37 -10 19
-5 29 -2 35 10 12 22 46 9 38 -15 -7 -23 31 -35 44 -13 5 10 15 14 25 10 10
-4 14 -12 10 -18 -6 -10 11 -28 28 -29 7 0 59 76 101 150 15 25 36 55 47 68
11 12 18 22 14 22 -3 0 -1 7 6 15 7 8 16 12 21 9 5 -3 6 2 3 10 -3 8 4 24 15
35 12 12 22 24 24 29 1 4 6 6 10 4 5 -1 6 8 2 20 -5 18 -4 20 4 8 10 -13 11
-13 12 0 1 8 1 22 0 30 -2 13 0 13 8 1 5 -8 7 -20 4 -27 -2 -6 0 -15 6 -19 6
-3 11 -11 11 -18 0 -6 -7 -2 -15 9 -13 18 -14 17 -10 -13 3 -30 -3 -38 -27
-34 -13 2 -9 -14 8 -35 15 -19 16 -19 9 1 -3 11 -3 16 1 12 4 -4 12 1 19 10
10 13 13 14 20 2 5 -8 4 -10 0 -6 -5 4 -14 -3 -21 -15 -10 -18 -9 -28 2 -50 8
-16 12 -28 9 -28 -3 0 3 -17 14 -38 15 -29 17 -42 9 -57 -11 -20 -11 -20 12 0
13 11 20 15 17 8 -8 -13 26 -51 84 -93 21 -15 36 -30 33 -33 -3 -3 3 -3 15 0
13 3 21 1 21 -6 0 -7 4 -10 9 -7 5 4 22 1 38 -5 15 -7 33 -13 38 -14 6 -2 30
-8 55 -15 46 -13 146 -15 190 -5 47 10 85 17 97 18 7 0 15 7 18 15 5 13 8 12
24 -3 11 -9 18 -25 16 -36 -2 -10 0 -21 4 -23 13 -8 6 40 -7 57 -11 13 -10 16
7 22 12 3 25 4 30 1 5 -4 16 0 24 8 19 19 29 9 16 -15 -5 -11 -6 -19 -2 -19 4
0 0 -5 -10 -11 -9 -5 -22 -7 -27 -4 -6 3 -10 4 -10 0 0 -3 11 -9 23 -14 24 -9
29 -33 13 -59 -4 -7 -2 -20 6 -29 7 -10 8 -14 1 -10 -6 4 -13 2 -15 -5 -3 -9
-6 -9 -12 0 -4 7 -2 12 5 12 8 0 8 4 -1 15 -10 12 -10 15 1 15 11 0 11 3 -1
11 -12 9 -11 10 5 4 15 -5 17 -3 9 5 -9 9 -19 8 -40 -4 -27 -15 -27 -16 -4
-10 23 6 24 6 10 -11 -9 -11 -10 -16 -2 -11 16 10 15 -2 -2 -19 -7 -8 -17 -11
-21 -7 -5 4 -5 1 -1 -6 6 -10 11 -10 22 -1 11 9 14 8 14 -4 0 -8 7 -18 16 -21
8 -3 13 -2 10 2 -3 5 1 9 8 9 8 0 12 -6 9 -14 -3 -8 2 -13 14 -13 10 0 29 -7
41 -16 12 -8 22 -12 22 -8 0 3 7 1 15 -6 8 -7 15 -9 15 -4 0 4 5 3 12 -4 7 -7
17 -8 29 -1 14 7 17 6 14 -3 -4 -10 9 -12 55 -10 33 2 58 7 55 12 -3 4 2 13
10 20 8 7 15 16 15 21 0 18 52 89 61 83 5 -3 6 1 4 9 -3 7 8 32 25 55 16 23
30 45 30 49 0 5 9 19 20 33 17 23 21 24 42 11 22 -13 22 -13 -2 15 l-25 28 26
-16 c20 -13 26 -13 26 -3 0 8 -5 13 -10 12 -5 -1 -12 4 -14 11 -3 8 1 10 12 5
15 -5 16 -3 5 18 l-13 24 23 -20 c13 -11 20 -14 16 -8 -13 23 -15 53 -3 50 6
-1 11 4 12 11 0 7 6 16 13 21 8 5 13 12 12 17 -1 5 4 10 12 12 8 2 9 0 3 -5
-5 -4 -11 -12 -12 -18 -1 -5 -4 -17 -8 -26 -4 -11 0 -19 12 -23 14 -6 15 -4 6
5 -14 14 -6 42 10 32 6 -4 7 -1 3 6 -12 18 25 56 37 39 6 -9 7 -8 4 4 -6 18
15 42 27 30 4 -4 6 -2 4 3 -7 21 4 20 99 -17 29 -11 51 -24 48 -28 -3 -4 2
-11 11 -14 10 -4 13 -2 9 7 -4 6 -1 5 7 -4 7 -9 20 -15 29 -14 9 2 16 -3 16
-11 0 -7 -5 -10 -11 -6 -20 12 -54 9 -52 -4 1 -8 5 -17 9 -20 13 -13 7 -27 -6
-16 -9 8 -17 8 -27 0 -12 -8 -12 -9 2 -4 10 3 19 2 22 -2 5 -9 -20 -32 -28
-26 -3 2 -4 1 -1 -3 3 -3 -3 -15 -12 -26 -10 -10 -18 -22 -18 -26 0 -3 -3 -5
-7 -4 -4 2 -12 -6 -18 -17 -6 -11 -7 -20 -3 -19 20 3 24 -2 13 -16 -11 -13
-15 -13 -22 -3 -6 8 -7 4 -2 -12 6 -22 5 -23 -9 -12 -12 10 -17 10 -23 1 -4
-7 -3 -9 3 -6 6 4 16 0 22 -7 8 -10 9 -16 1 -21 -5 -3 -10 -1 -10 6 0 7 -8 3
-17 -8 -10 -11 -25 -18 -33 -16 -13 4 -13 3 0 -6 13 -10 13 -12 0 -20 -8 -6
-11 -13 -7 -18 5 -4 12 -1 17 7 6 8 10 11 10 5 0 -16 -14 -30 -34 -33 -12 -2
-16 1 -10 9 4 8 3 10 -4 5 -6 -4 -8 -14 -5 -23 5 -12 2 -15 -9 -11 -10 4 -14
0 -12 -15 1 -12 3 -25 3 -29 1 -5 5 -8 10 -8 6 0 8 9 6 20 -2 12 0 18 6 15 5
-4 8 -1 7 7 -2 7 4 12 13 10 9 -1 21 8 27 20 8 17 11 19 11 6 1 -9 -13 -26
-30 -38 -34 -25 -33 -37 3 -20 22 11 22 11 3 -5 -11 -9 -19 -20 -18 -25 3 -11
-40 1 -49 14 -5 7 -8 4 -8 -6 0 -10 -5 -18 -11 -18 -6 0 -8 7 -4 18 5 13 3 14
-6 5 -13 -13 -4 -34 14 -32 7 1 23 1 37 0 25 -2 25 -2 3 -11 -13 -5 -23 -14
-23 -20 0 -5 -5 -10 -11 -10 -22 0 -38 -33 -27 -54 8 -14 7 -17 -3 -11 -9 6
-11 3 -6 -8 3 -9 -1 -21 -11 -29 -15 -12 -16 -11 -3 5 15 19 2 24 -17 5 -9 -9
-12 -9 -12 0 0 7 5 12 10 12 6 0 9 6 8 13 -2 6 3 11 10 9 6 -1 12 2 12 8 0 5
-5 10 -12 10 -6 0 -4 6 7 13 11 9 15 19 10 27 -6 9 -4 11 5 5 8 -5 11 -4 7 2
-4 6 1 10 10 9 9 0 18 6 21 14 4 12 2 13 -10 3 -11 -10 -17 -10 -26 -1 -9 9
-15 9 -24 -1 -11 -10 -9 -11 7 -5 16 5 18 4 8 -6 -6 -7 -9 -20 -6 -29 4 -9 2
-13 -2 -9 -5 5 -15 -1 -22 -12 -8 -11 -20 -17 -26 -14 -8 5 -8 3 1 -7 16 -17
16 -37 0 -21 -23 23 -27 12 -5 -12 21 -22 119 -72 155 -80 9 -1 29 -8 44 -14
34 -14 58 -6 53 17 -2 10 3 18 11 18 8 0 14 -4 14 -9 0 -11 22 -6 38 10 16 14
36 6 26 -10 -4 -6 -2 -8 4 -5 5 4 8 16 5 27 -3 12 1 22 11 26 9 3 13 10 10 15
-3 5 -1 9 5 9 5 0 12 -6 14 -12 4 -9 6 -8 6 2 1 9 10 16 20 17 13 1 18 -3 14
-13 -3 -7 2 -17 11 -20 9 -3 14 -10 11 -14 -3 -5 -1 -11 5 -15 5 -3 10 -11 10
-17 0 -6 -6 -6 -15 2 -13 11 -18 11 -28 1 -9 -10 -8 -12 7 -9 10 1 21 -3 23
-9 3 -7 -1 -13 -9 -13 -10 0 -10 -2 2 -10 9 -5 19 -5 27 2 18 15 16 -3 -4 -31
-12 -18 -13 -22 -2 -15 8 4 22 10 33 11 14 3 16 0 8 -9 -6 -7 -12 -17 -14 -23
-1 -5 -7 -9 -13 -7 -5 2 -6 0 -2 -4 11 -11 58 -13 51 -2 -3 4 -10 6 -15 3 -5
-3 -6 1 -3 9 5 13 8 13 20 1 19 -19 18 -24 -8 -35 -22 -8 -22 -9 4 -9 17 -1
28 5 31 17 2 9 4 2 4 -16 0 -18 3 -35 6 -39 4 -3 7 1 7 10 0 9 4 17 9 17 4 0
7 -11 5 -26 -2 -22 0 -23 14 -12 12 10 14 10 8 1 -4 -8 -1 -13 8 -13 9 0 16
-4 16 -10 0 -5 6 -10 13 -10 7 0 31 -9 53 -19 46 -22 144 -52 144 -44 0 3 6 1
13 -6 10 -7 17 -7 24 0 8 8 13 8 17 0 11 -17 29 -13 22 4 -9 25 2 17 17 -11
12 -22 15 -24 20 -10 5 12 3 15 -6 10 -8 -5 -7 -2 2 9 16 20 22 22 18 6 -1 -6
4 -14 12 -17 10 -3 11 0 5 9 -6 11 -3 10 11 -1 17 -13 18 -13 13 1 -5 12 0 15
23 14 17 -1 32 2 35 7 3 4 10 5 16 2 8 -5 9 -1 4 11 -5 14 -4 16 7 7 8 -7 16
-11 18 -9 2 1 -2 -3 -10 -10 -8 -7 -18 -10 -22 -7 -5 3 -6 -2 -3 -10 5 -13 9
-12 27 4 13 13 24 16 32 10 6 -5 16 -5 25 0 13 8 13 10 1 10 -12 0 -12 3 -3
12 10 10 15 10 22 -2 8 -13 10 -13 10 2 0 17 15 19 39 4 10 -7 12 -6 6 4 -6
10 -4 12 8 7 9 -3 19 -1 23 6 4 7 4 9 -1 5 -4 -4 -17 -3 -28 3 -10 6 -17 7
-14 2 8 -12 -49 -11 -60 1 -5 5 -2 6 6 1 8 -4 17 -2 22 6 7 11 9 11 9 1 0 -7
5 -10 10 -7 6 4 7 11 4 17 -4 6 -2 8 4 4 6 -3 17 3 25 15 11 15 16 17 20 7 4
-9 6 -8 6 3 1 9 9 20 18 23 15 6 15 8 3 16 -8 6 -11 10 -7 10 5 0 23 -10 40
-22 17 -12 27 -17 24 -11 -4 7 3 19 15 29 15 11 17 14 6 11 -10 -4 -19 -2 -19
3 -3 20 -4 25 -12 38 -8 11 -2 16 17 13 5 -1 6 5 2 14 -3 9 -2 13 4 10 9 -6
14 8 11 28 -1 5 3 6 8 2 6 -3 8 -12 4 -20 -4 -11 -1 -13 11 -9 9 3 14 10 11
14 -3 4 1 13 8 19 10 8 14 7 14 -4 0 -8 -5 -11 -10 -8 -6 3 -7 1 -3 -5 7 -12
-27 -35 -38 -25 -3 3 -7 1 -7 -5 -2 -21 -4 -27 -12 -39 -4 -7 -1 -10 10 -9 10
2 24 -4 31 -13 12 -14 12 -14 4 4 -8 14 -6 23 6 33 15 11 14 12 -5 2 -15 -7
-23 -7 -23 -1 0 14 38 33 50 26 6 -3 7 1 4 10 -5 11 -2 14 12 9 18 -6 18 -6 1
8 -18 13 -18 14 2 32 12 11 21 14 21 8 0 -7 5 -12 11 -12 8 0 8 4 0 13 -7 10
-7 17 0 24 12 12 3 36 -11 28 -4 -3 -13 2 -19 9 -10 12 -5 25 23 65 20 28 36
56 36 61 0 6 7 24 15 39 l14 28 -67 21 c-153 47 -150 47 -172 27 -11 -10 -20
-23 -20 -29 0 -13 -70 -120 -82 -124 -4 -2 -5 -9 -2 -14 4 -7 2 -8 -5 -4 -6 4
-9 17 -6 29 2 12 2 17 -1 10 -3 -7 -13 -9 -22 -6 -12 3 -14 2 -4 -4 7 -6 10
-18 6 -29 -5 -16 -4 -16 5 -4 9 13 11 12 11 -6 0 -18 -5 -21 -32 -18 -23 3
-29 1 -18 -5 8 -6 18 -7 22 -5 4 3 8 3 8 1 0 -3 -18 -15 -41 -26 -36 -19 -95
-24 -129 -11 -3 1 -8 2 -12 1 -5 0 -8 4 -8 9 0 6 -11 10 -25 10 -42 0 -88 28
-82 51 3 10 2 17 -3 14 -4 -3 -10 4 -13 16 -3 12 0 22 9 26 8 3 11 10 7 17 -3
6 -3 8 2 4 4 -4 14 0 21 10 9 13 9 19 1 25 -8 6 -6 7 6 3 16 -5 25 8 10 17 -5
2 -3 2 4 1 15 -4 27 13 14 18 -5 1 -2 10 7 18 14 13 15 12 9 -3 -4 -11 -1 -17
9 -17 10 0 13 6 9 19 -5 16 -1 18 25 15 16 -2 30 1 30 7 0 6 -4 7 -10 4 -5 -3
-10 -3 -11 2 -5 44 -4 62 4 60 5 -1 12 4 15 12 3 9 0 11 -8 6 -9 -5 -11 -4 -6
4 4 6 13 8 19 4 25 -16 37 -11 33 13 -5 24 16 54 37 54 8 0 8 3 2 8 -5 4 -11
14 -13 22 -1 10 2 9 13 -5 14 -18 13 -21 -12 -42 -16 -12 -23 -23 -18 -23 6
-1 21 -4 35 -6 23 -4 23 -4 6 9 -17 12 -17 14 0 28 16 13 17 12 11 -4 -4 -10
-3 -16 2 -12 5 3 12 -1 15 -7 3 -7 3 -2 0 11 -5 17 -3 21 6 16 9 -6 11 -4 5 4
-4 8 1 18 14 27 12 9 19 20 16 25 -4 5 -3 9 2 9 4 0 19 16 31 34 16 23 29 33
40 30 13 -4 13 -3 -2 6 -15 10 -20 9 -27 -1 -7 -11 -9 -10 -9 5 0 21 -13 14
-16 -9 -1 -8 2 -12 8 -9 6 4 8 1 6 -7 -3 -8 -11 -13 -17 -11 -7 1 -9 -2 -5 -9
5 -8 3 -9 -6 -4 -9 6 -11 4 -5 -5 5 -8 4 -11 -2 -7 -14 9 -37 -19 -28 -33 4
-6 1 -9 -7 -8 -8 2 -12 -5 -10 -17 2 -17 0 -16 -12 5 -18 30 -20 40 -5 40 5 0
7 -4 4 -10 -3 -5 -2 -10 3 -10 6 0 13 7 16 16 8 21 8 26 -2 20 -5 -3 -9 1 -9
9 0 18 13 20 21 3 7 -19 47 29 39 47 -3 9 1 16 8 16 8 1 21 2 29 3 8 1 22 -3
30 -9 13 -9 13 -8 0 9 -14 18 -13 18 10 12 21 -6 22 -5 7 4 -13 8 -22 9 -31 1
-10 -8 -17 -7 -27 6 -8 9 -9 14 -3 10 11 -6 29 19 26 35 -1 4 5 5 13 2 17 -7
20 -25 4 -21 -6 1 -14 -4 -16 -11 -4 -11 1 -11 23 1 16 8 37 13 47 12 9 -2 17
1 17 6 0 5 -12 7 -27 5 -26 -5 -27 -4 -10 9 11 7 24 12 30 11 7 -2 9 -1 4 1
-4 3 -5 9 -2 13 3 5 0 12 -6 16 -8 4 -9 3 -5 -4 3 -6 -3 -16 -15 -22 -11 -7
-22 -10 -23 -8 -1 2 -8 12 -16 23 -14 19 -14 19 5 3 25 -21 41 -12 40 22 -2
34 4 43 20 30 8 -7 20 -9 27 -5 7 4 3 -2 -9 -12 -20 -16 -20 -19 -5 -33 14
-13 15 -12 9 2 -6 18 19 46 30 34 4 -4 1 -11 -7 -16 -9 -6 -10 -10 -3 -10 17
0 26 18 16 33 -12 20 -12 38 0 34 7 -3 11 -10 9 -16 -1 -7 2 -10 8 -6 8 5 8
11 -1 21 -9 11 -8 15 4 20 9 3 22 3 29 -1 7 -3 3 2 -9 11 -27 19 -30 34 -7 34
8 0 12 5 9 10 -3 6 -1 10 5 10 6 0 8 6 4 13 -4 6 -4 9 1 5 4 -4 15 -2 24 4 10
8 9 4 -3 -10 -11 -12 -15 -22 -10 -22 5 -1 -2 -7 -16 -15 -17 -10 -20 -14 -9
-15 20 0 42 24 31 35 -4 5 1 5 11 2 10 -4 16 -3 12 2 -3 5 -1 12 5 16 10 6 14
-7 11 -35 -1 -8 6 -3 16 12 17 25 20 26 31 10 7 -9 10 -12 7 -5 -4 8 9 7 42
-5 57 -20 71 -31 67 -54 -1 -11 3 -15 14 -11 15 4 15 3 2 -9 -8 -7 -16 -23
-18 -35 -3 -20 1 -24 23 -23 3 1 13 -6 21 -15 9 -8 20 -13 25 -10 5 4 9 2 9
-3 0 -6 -7 -12 -15 -15 -8 -4 -12 -15 -10 -28 4 -21 4 -21 -15 -4 -22 20 -26
9 -6 -17 7 -10 17 -14 21 -10 5 4 5 1 0 -7 -7 -12 -10 -11 -21 3 -13 19 -23
11 -19 -16 3 -15 0 -16 -17 -7 -20 11 -19 36 1 31 7 -1 9 2 5 9 -5 8 -3 9 6 4
9 -5 11 -4 6 3 -9 16 -9 16 -40 -13 -18 -16 -22 -25 -12 -25 8 0 16 -3 18 -8
3 -7 89 -44 182 -77 49 -18 49 -18 68 5 10 12 15 26 12 31 -3 5 -1 9 5 9 5 0
12 -6 14 -12 4 -10 6 -10 6 0 1 6 1 15 0 18 -1 10 54 43 63 38 4 -3 8 -3 8 0
0 3 -10 10 -21 17 -17 9 -20 8 -14 -2 6 -8 4 -10 -5 -4 -8 5 -11 4 -6 -3 3 -6
2 -13 -4 -17 -5 -3 -10 1 -10 9 0 9 -4 16 -10 16 -5 0 -10 5 -10 11 0 8 4 9
13 0 16 -13 27 -5 27 19 0 10 8 24 17 31 11 10 14 10 9 2 -4 -8 -1 -13 8 -13
10 0 13 -6 10 -15 -4 -8 -10 -15 -16 -15 -5 0 -7 4 -3 9 3 5 1 12 -5 16 -5 3
-10 -1 -10 -9 0 -8 9 -20 20 -26 11 -6 20 -7 19 -3 -1 4 -1 15 1 23 1 11 4 9
10 -5 7 -16 9 -17 9 -3 1 9 -3 20 -9 23 -5 3 -15 16 -21 28 -12 21 -11 21 8 5
11 -10 24 -18 29 -18 5 0 1 5 -8 11 -10 5 -18 15 -18 20 0 6 4 8 9 4 5 -3 12
-1 15 4 4 5 1 13 -5 17 -8 5 -4 13 12 26 13 10 17 16 8 13 -10 -4 -16 0 -16
10 0 9 5 14 12 12 6 -3 11 3 11 13 0 10 -7 17 -16 15 -8 -1 -14 -8 -13 -13 2
-7 -4 -9 -14 -5 -11 4 -13 8 -5 11 7 2 12 8 12 14 0 6 -7 8 -15 4 -12 -4 -13
-2 -6 13 6 10 7 22 3 26 -4 5 2 5 13 2 19 -7 19 -6 2 7 -14 10 -15 15 -5 19 8
4 9 8 3 14 -16 13 -17 35 -3 44 7 5 9 9 3 9 -5 0 -10 15 -9 32 3 85 -61 180
-149 222 -111 52 -280 81 -364 61 -13 -3 -32 -7 -43 -9 -31 -7 -108 -44 -140
-66 -17 -12 -35 -18 -40 -15 -6 4 -9 1 -8 -6 2 -7 -7 -18 -19 -24 -13 -5 -23
-15 -23 -21 0 -22 -44 -52 -65 -44 -19 7 -19 7 3 14 12 4 22 12 22 17 0 12
-17 12 -25 -1 -9 -15 -22 -12 -29 6 -5 13 -4 14 7 6 14 -12 27 -7 27 10 0 5
-6 6 -12 2 -10 -5 -10 -4 -1 6 9 10 7 17 -10 32 l-22 20 25 -16 c14 -9 25 -20
25 -24 0 -4 7 -17 16 -30 14 -19 17 -20 23 -7 3 9 2 13 -3 10 -5 -3 -12 -1
-16 5 -3 5 2 10 12 11 14 0 14 2 -4 9 -23 9 -33 32 -12 28 6 -2 14 4 16 12 4
13 3 13 -6 0 -10 -14 -16 -7 -12 13 1 5 -3 6 -9 2 -6 -3 -8 -11 -5 -16 4 -5 2
-9 -3 -9 -10 0 -52 90 -52 112 -1 44 -59 127 -115 166 -24 16 -333 121 -405
137 -8 2 -37 11 -64 19 -32 10 -54 12 -61 6 -7 -6 -16 -6 -20 -2 -5 4 -5 1 -1
-6 9 -14 -51 -115 -64 -107 -4 3 -7 -3 -6 -13 1 -13 -6 -16 -29 -15 -21 2 -26
0 -15 -7 8 -5 18 -6 22 -4 16 10 8 -16 -11 -35 -11 -11 -17 -22 -14 -25 4 -3
0 -6 -9 -6 -10 0 -15 10 -15 30 0 24 3 27 14 18 7 -6 16 -8 19 -5 3 3 -4 11
-16 17 -14 8 -18 15 -12 23 11 15 12 48 0 41 -4 -3 -8 0 -8 5 0 6 -4 11 -8 11
-5 0 -9 -7 -9 -15 0 -8 5 -11 10 -8 6 4 7 1 2 -6 -5 -9 -10 -10 -18 -2 -14 14
-30 14 -22 1 3 -5 2 -10 -4 -10 -15 0 -9 39 7 45 8 3 10 0 6 -8 -4 -7 -1 -7 7
2 11 10 11 15 1 18 -6 3 -10 9 -7 14 4 5 -2 6 -11 2 -15 -5 -13 0 6 28 17 23
19 29 6 20 -15 -13 -19 -13 -26 -1 -5 8 -6 18 -3 24 3 5 1 6 -5 2 -6 -3 -13
-2 -17 3 -3 6 -12 8 -20 4 -11 -4 -13 -1 -9 12 5 12 3 16 -7 13 -7 -2 -22 5
-34 17 -11 12 -34 30 -52 40 -18 10 -29 23 -26 28 3 6 1 7 -5 3 -13 -8 -153
34 -147 43 1 3 -15 7 -38 8 -22 2 -44 8 -48 14 -4 8 -8 7 -11 -2 -4 -11 -10
-12 -25 -2 -11 6 -24 8 -29 3 -5 -5 -34 -10 -64 -12 -30 -2 -57 -6 -60 -10 -3
-4 -15 -9 -27 -11 -12 -1 -28 -9 -37 -16 -9 -7 -16 -10 -16 -7 0 4 -13 -2 -30
-14 -16 -12 -39 -22 -50 -23 -12 -1 -18 -7 -16 -14 3 -7 -1 -10 -9 -7 -8 3
-16 -4 -20 -17 -4 -12 -10 -18 -14 -13 -3 5 -15 10 -26 12 -18 2 -18 1 -4 -11
15 -11 15 -15 2 -32 -14 -19 -15 -19 -8 5 7 24 6 24 -11 8 -14 -14 -15 -20 -4
-32 12 -15 8 -18 -16 -15 -14 2 -23 -26 -11 -34 8 -6 6 -7 -5 -3 -23 7 -42
-26 -25 -43 7 -7 8 -11 2 -10 -18 4 -45 -13 -38 -25 3 -6 1 -6 -8 2 -18 17
-26 15 -32 -8 -5 -21 23 -46 38 -32 5 4 5 1 1 -6 -5 -9 -13 -9 -26 -2 -15 8
-21 6 -30 -10 -6 -11 -14 -18 -19 -16 -4 3 -12 -4 -19 -15 -7 -10 -8 -19 -3
-19 6 0 13 5 16 10 9 15 24 2 22 -20 -1 -10 -5 -17 -9 -14 -4 3 -4 12 -1 22 6
15 3 14 -16 -3 -22 -19 -22 -19 -2 -27 12 -4 21 -10 21 -12 0 -5 -27 2 -45 13
-5 3 -18 7 -29 8 -16 3 -17 1 -6 -12 7 -8 15 -13 19 -11 4 3 13 0 21 -6 12 -8
12 -9 -2 -4 -18 5 -43 -25 -32 -37 3 -3 -2 -16 -11 -29 -11 -14 -15 -16 -12
-6 4 10 2 20 -3 23 -6 4 -10 1 -10 -5 0 -7 -8 -9 -20 -5 -22 7 -25 -12 -5 -28
6 -5 3 -7 -7 -4 -22 8 -32 -20 -10 -32 9 -5 21 -9 27 -9 5 0 11 -6 13 -14 2
-9 0 -8 -7 2 -6 8 -11 11 -11 6 0 -4 -11 -1 -24 7 -23 15 -36 13 -36 -5 0 -5
5 -6 10 -3 6 3 10 1 10 -5 0 -7 -6 -10 -14 -7 -20 8 -29 -22 -14 -41 10 -12
10 -14 1 -8 -13 7 -17 -4 -14 -32 1 -8 -5 -7 -18 5 -25 21 -27 27 -6 19 17 -6
20 4 5 22 -6 6 -7 10 -3 7 7 -5 48 55 59 88 4 9 11 17 16 17 5 0 7 4 3 9 -3 6
3 14 12 20 10 5 16 13 14 18 -2 4 7 14 20 20 14 8 18 13 9 13 -12 0 -12 2 -2
9 8 4 13 12 12 16 -1 4 7 18 19 31 11 13 18 24 13 24 -4 0 1 5 11 11 9 6 15
14 12 19 -3 5 4 14 15 20 11 6 20 7 20 3 0 -4 5 0 11 10 6 10 8 21 5 24 -3 4
-6 1 -6 -5 0 -7 -5 -12 -11 -12 -8 0 -8 5 1 15 7 8 16 13 20 10 9 -6 23 25 15
33 -3 3 -5 0 -5 -6 0 -7 -5 -12 -11 -12 -8 0 -7 6 2 16 12 15 15 14 27 -4 13
-20 48 -20 36 -1 -3 5 -10 7 -15 4 -5 -3 -6 1 -3 10 4 9 3 15 -2 13 -17 -6
-14 17 7 45 13 18 26 26 38 22 12 -3 17 1 18 16 2 18 0 19 -15 7 -9 -7 -1 10
18 37 41 58 48 65 67 58 8 -3 13 0 11 7 -2 7 4 15 12 17 12 4 12 3 1 -5 -9 -7
-10 -12 -2 -16 6 -4 11 -3 11 3 0 12 29 8 38 -5 9 -12 28 -12 39 0 4 5 3 6 -3
3 -7 -4 -15 0 -18 9 -9 24 -7 28 7 16 9 -8 17 -8 27 0 12 8 12 9 -2 4 -22 -7
-33 10 -12 18 11 4 14 12 9 24 -4 9 -7 26 -7 37 1 19 0 19 -10 1 -8 -15 -12
-16 -19 -5 -7 11 -9 11 -9 1 0 -7 -4 -11 -9 -7 -6 3 -8 -4 -6 -15 2 -11 0 -18
-5 -15 -5 3 -7 -9 -5 -27 4 -29 3 -31 -9 -16 -12 16 -15 16 -35 2 -22 -16 -22
-15 -10 4 7 11 15 20 18 20 19 -2 33 3 28 9 -4 3 -1 13 6 21 10 13 9 15 -8 9
-18 -7 -19 -6 -3 6 10 8 15 16 13 19 -3 3 5 4 19 3 14 -2 27 3 30 10 3 9 -2
12 -14 10 -17 -3 -18 -1 -7 16 6 10 18 19 25 19 7 0 10 5 7 10 -3 6 -1 10 4
10 6 0 10 3 8 8 -2 7 6 12 24 12 6 0 -6 -15 -26 -34 -29 -28 -32 -33 -14 -29
13 4 20 2 16 -4 -3 -5 3 -17 14 -27 12 -10 18 -20 14 -24 -3 -3 -11 0 -16 8
-9 12 -9 11 -4 -5 4 -11 7 -28 7 -37 0 -10 3 -20 9 -23 5 -4 6 2 2 12 -6 16
-5 17 13 3 18 -14 18 -14 2 6 -13 15 -15 23 -7 31 8 8 6 16 -7 30 -11 10 -21
27 -22 38 -3 16 -1 17 12 6 16 -14 40 -6 31 10 -4 5 3 9 15 9 13 0 19 -4 14
-12 -5 -7 -3 -8 5 -3 18 10 -2 28 -25 23 -11 -2 -18 -10 -16 -17 1 -7 -3 -11
-10 -9 -24 8 -17 24 25 51 23 16 33 26 22 22 -11 -4 -25 -8 -32 -8 -7 0 -9 -5
-6 -10 3 -6 1 -7 -6 -3 -6 4 -8 12 -5 18 5 8 1 9 -12 5 -18 -7 -18 -6 -2 6 10
8 14 17 10 21 -4 4 -2 6 3 4 6 -2 10 -1 11 2 2 14 26 50 32 49 19 -3 25 2 12
11 -8 5 -11 13 -6 17 5 4 11 2 13 -4 3 -7 11 -13 19 -13 9 0 12 -5 9 -10 -4
-6 -10 -8 -15 -5 -4 3 -5 -5 -2 -17 5 -19 7 -20 10 -5 2 9 8 14 14 11 7 -4 8
-2 4 5 -4 6 -1 14 8 17 22 9 -3 32 -28 26 -13 -4 -17 -1 -12 7 4 6 4 10 -1 9
-4 -1 -19 4 -32 11 -13 7 -21 9 -18 4 3 -5 -5 -9 -18 -9 -13 0 -21 4 -19 8 3
5 10 6 15 3 5 -4 9 -3 9 2 0 4 -21 17 -48 27 -45 18 -96 40 -171 72 -18 8 -36
12 -39 10 -3 -3 -11 -1 -19 5 -7 6 -13 8 -13 4 0 -5 -9 0 -19 9 -13 12 -21 14
-26 6 -5 -8 -11 -7 -23 2 -16 12 -16 11 -2 -6 10 -13 11 -17 2 -12 -7 4 -20 2
-29 -6 -14 -11 -16 -11 -8 2 7 13 6 13 -11 0 -35 -28 -65 -41 -76 -34 -7 4 -8
3 -4 -4 5 -9 -33 -40 -41 -34 -8 5 -23 1 -20 -5 1 -5 -3 -9 -8 -10 -6 0 -9 3
-8 8 2 5 -2 9 -8 9 -6 0 -9 -9 -6 -20 3 -11 1 -18 -3 -15 -5 3 -11 -1 -13 -7
-4 -9 -6 -9 -6 1 -1 11 -5 10 -15 -4 -12 -17 -16 -17 -30 -6 -9 8 -19 11 -22
8 -9 -8 6 -28 16 -22 5 3 12 0 16 -6 4 -7 3 -9 -4 -5 -6 3 -13 2 -17 -4 -4 -6
-10 -8 -15 -5 -4 3 -11 -2 -14 -11 -3 -8 -10 -13 -15 -10 -5 3 -12 -1 -15 -10
-4 -9 -9 -14 -13 -11 -3 4 -12 2 -20 -4 -7 -6 -13 -8 -13 -5 0 4 -9 2 -20 -4
-11 -6 -17 -16 -14 -22 4 -6 3 -8 -4 -4 -5 3 -13 0 -15 -6 -4 -10 -6 -10 -6 0
-1 6 -10 12 -20 12 -22 0 -33 22 -24 48 3 9 2 14 -2 10 -10 -10 -14 -69 -4
-62 11 6 19 -10 11 -22 -4 -6 -14 -3 -24 8 -10 10 -13 18 -7 18 5 0 7 5 3 11
-10 17 -34 -32 -27 -56 5 -18 5 -18 -12 -1 -15 15 -16 19 -4 27 10 6 10 9 2 9
-7 0 -13 5 -13 11 0 5 4 7 10 4 5 -3 12 6 16 20 3 13 10 23 14 20 5 -3 11 -2
14 3 3 5 -2 9 -11 9 -9 0 -18 -8 -20 -17 -6 -22 -50 -44 -56 -27 -2 6 -6 4
-10 -5 -4 -13 -1 -16 14 -13 12 3 17 0 13 -7 -5 -7 -2 -8 6 -3 9 6 11 4 5 -6
-5 -7 -10 -22 -10 -31 -2 -22 -13 -34 -22 -24 -4 4 -1 11 7 16 8 5 11 12 7 16
-4 4 -13 2 -19 -4 -15 -15 -32 -16 -23 -2 3 6 0 10 -7 10 -8 0 -9 3 -3 8 12 8
13 27 3 38 -4 4 -3 13 3 20 7 8 7 14 0 18 -6 4 -7 16 -3 29 5 12 8 92 7 179 0
86 3 154 7 151 5 -2 8 0 8 6 0 5 -5 13 -10 16 -6 4 -8 11 -5 16 4 5 0 9 -7 9
-8 0 -6 5 5 11 9 6 15 14 12 20 -4 5 -2 9 3 9 6 0 12 7 16 15 3 8 0 14 -7 12
-7 -1 -11 4 -9 11 1 8 -2 11 -7 8 -5 -4 -12 -2 -16 4 -4 6 -11 8 -16 4 -5 -3
-7 -10 -3 -15 3 -5 10 -6 16 -3 6 4 5 -3 -2 -16 -11 -20 -10 -21 12 -10 21 10
21 10 5 -3 -14 -11 -15 -16 -5 -21 7 -3 3 -3 -10 0 -12 3 -21 1 -20 -4 3 -9
-2 -12 -18 -12 -4 0 -1 6 5 14 8 10 9 16 1 21 -6 3 -8 11 -5 16 4 5 1 9 -6 9
-7 0 -4 7 7 15 16 12 17 16 4 24 -8 5 -17 8 -21 5 -4 -2 -10 0 -14 6 -9 15
-27 12 -20 -2 4 -7 -2 -3 -12 9 -10 11 -62 37 -115 57 -109 40 -108 40 -108
25 0 -5 5 -7 10 -4 6 3 10 1 10 -5 0 -7 -7 -9 -16 -6 -9 3 -17 6 -20 6 -2 0
-1 7 2 15 8 21 5 18 -41 -28z m41 -20 c2 -12 0 -16 -2 -9 -3 6 -13 12 -21 12
-13 0 -13 3 -3 15 15 18 23 13 26 -18z m29 4 c3 -5 2 -12 -3 -15 -5 -3 -9 1
-9 9 0 17 3 19 12 6z m225 -91 c0 -5 -2 -10 -4 -10 -3 0 -8 5 -11 10 -3 6 -1
10 4 10 6 0 11 -4 11 -10z m34 -100 c-6 -6 -10 -3 -10 10 0 13 4 16 10 10 7
-7 7 -13 0 -20z m-584 -120 c0 -5 -5 -10 -11 -10 -5 0 -7 5 -4 10 3 6 8 10 11
10 2 0 4 -4 4 -10z m-27 -44 c4 -10 1 -13 -8 -9 -8 3 -12 9 -9 14 7 12 11 11
17 -5z m1358 -39 c-13 -13 -26 -3 -16 12 3 6 11 8 17 5 6 -4 6 -10 -1 -17z
m-1472 -83 c-15 -18 -22 -13 -13 10 3 9 10 13 16 10 5 -3 4 -12 -3 -20z m906
-173 c3 -5 2 -12 -3 -15 -5 -3 -9 1 -9 9 0 17 3 19 12 6z m-1030 -71 c-3 -5
-12 -10 -18 -10 -7 0 -6 4 3 10 19 12 23 12 15 0z m-55 -45 c4 3 11 -2 14 -10
4 -13 2 -13 -14 -5 -27 14 -29 13 -24 -14 2 -14 0 -27 -6 -31 -6 -4 -7 1 -3
11 4 12 3 15 -5 10 -26 -16 -29 6 -4 32 17 17 28 22 30 14 2 -7 7 -10 12 -7z
m478 -30 c-3 -3 -9 2 -12 12 -6 14 -5 15 5 6 7 -7 10 -15 7 -18z m1436 -20
c-5 16 -4 17 5 5 15 -20 14 -30 -3 -30 -16 0 -29 -27 -20 -43 3 -7 -2 -3 -10
8 -18 21 -15 42 4 37 10 -2 11 0 2 11 -7 8 -9 17 -5 20 3 4 12 -1 20 -11 12
-16 13 -16 7 3z m-1951 -26 c5 -3 2 -9 -5 -12 -9 -3 -14 3 -15 15 -1 11 1 16
5 12 4 -5 11 -12 15 -15z m478 -22 c-10 -9 -11 -8 -5 6 3 10 9 15 12 12 3 -3
0 -11 -7 -18z m-492 -13 c14 -12 -19 -1 -35 12 -18 14 -18 14 6 3 14 -6 27
-13 29 -15z m1301 -10 c0 -8 -19 -13 -24 -6 -3 5 1 9 9 9 8 0 15 -2 15 -3z
m-774 -41 c-3 -14 -2 -31 2 -37 15 -24 10 -36 -13 -33 -14 1 -28 7 -32 11 -4
5 1 7 13 4 13 -3 21 0 21 9 0 8 -6 12 -13 9 -15 -6 -12 12 6 42 19 29 21 28
16 -5z m627 -38 c-3 -9 -8 -14 -10 -11 -3 3 -2 9 2 15 9 16 15 13 8 -4z m-749
-11 c3 -8 2 -12 -4 -9 -6 3 -10 10 -10 16 0 14 7 11 14 -7z m-544 -14 c0 -5
-7 -10 -16 -10 -8 0 -12 5 -9 10 3 6 10 10 16 10 5 0 9 -4 9 -10z m516 -39
c-15 -15 -23 -31 -19 -36 5 -4 2 -5 -5 -1 -9 6 -10 11 -3 20 6 7 9 16 6 19 -3
4 -2 5 2 2 10 -8 33 16 26 28 -4 6 -1 7 6 2 9 -5 6 -15 -13 -34z m-516 3 c0
-10 -6 -14 -14 -11 -21 8 -27 -4 -10 -21 14 -13 17 -13 25 -1 5 9 9 10 9 2 0
-18 -19 -26 -34 -14 -18 15 -28 1 -13 -18 10 -14 10 -14 -4 -3 -13 10 -19 10
-28 -2 -10 -11 -8 -17 6 -25 10 -6 13 -11 6 -11 -6 0 -14 4 -18 10 -3 5 -13 7
-23 4 -14 -5 -13 -2 3 11 11 9 19 21 17 27 -2 6 6 17 18 25 11 8 17 19 14 25
-4 6 -2 8 4 4 6 -3 13 -2 17 4 10 16 25 12 25 -6z m675 6 c3 -5 -1 -10 -10
-10 -9 0 -13 5 -10 10 3 6 8 10 10 10 2 0 7 -4 10 -10z m662 -12 c-3 -8 -6 -5
-6 6 -1 11 2 17 5 13 3 -3 4 -12 1 -19z m1484 5 c12 -16 12 -17 -2 -6 -9 7
-20 9 -24 5 -5 -4 -5 -1 -1 6 9 16 11 15 27 -5z m-1044 -45 c-3 -8 -6 -5 -6 6
-1 11 2 17 5 13 3 -3 4 -12 1 -19z m1068 12 c3 -6 -1 -7 -10 -4 -11 5 -14 2
-9 -12 5 -15 4 -16 -4 -4 -11 15 -7 30 8 30 5 0 12 -4 15 -10z m-1541 -8 c3
-5 -1 -9 -9 -9 -8 0 -12 4 -9 9 3 4 7 8 9 8 2 0 6 -4 9 -8z m1100 -33 c-2 -4
5 -5 16 -2 11 3 28 2 37 -2 10 -5 22 -7 26 -6 5 1 5 -4 1 -10 -5 -9 -2 -10 10
-6 10 4 15 3 11 -3 -3 -6 1 -10 10 -10 13 0 14 -4 4 -22 -11 -21 -11 -22 4 -9
21 17 21 16 1 -42 -9 -26 -20 -44 -25 -41 -5 3 -9 -1 -9 -8 0 -7 -15 -36 -33
-64 -19 -28 -36 -58 -40 -67 -3 -9 -11 -17 -17 -17 -6 0 -8 -4 -5 -10 3 -5 1
-10 -4 -10 -6 0 -11 -7 -11 -15 0 -18 -4 -18 -33 -4 l-22 10 21 -18 21 -18
-22 -32 c-20 -28 -24 -31 -35 -18 -12 14 -25 12 -25 -3 0 -4 -8 -18 -17 -32
-9 -14 -18 -32 -20 -40 -2 -8 -7 -19 -13 -23 -6 -5 -4 -7 5 -4 8 2 14 10 12
16 -1 7 2 10 8 6 6 -4 7 1 4 12 -4 13 -3 15 4 5 7 -11 10 -11 15 3 5 10 3 14
-4 9 -7 -4 -10 -1 -7 7 3 8 11 13 17 11 7 -1 10 2 7 7 -4 5 -2 12 4 16 5 3 10
2 10 -4 0 -18 -33 -81 -42 -81 -5 0 -7 -4 -4 -9 3 -4 -8 -8 -24 -7 -17 0 -30
-4 -30 -9 1 -6 13 -9 28 -8 15 0 21 -1 14 -4 -6 -2 -9 -10 -5 -16 4 -7 -1 -5
-11 2 -16 13 -17 13 -15 0 4 -17 -19 -61 -38 -72 -7 -5 -10 -13 -7 -19 5 -7 2
-8 -6 -3 -10 6 -12 4 -7 -8 4 -10 -3 -21 -19 -32 -14 -9 -22 -20 -19 -25 4 -6
-2 -7 -12 -3 -16 6 -16 5 -4 -10 12 -16 8 -21 -12 -18 -4 1 -7 -6 -5 -15 2 -9
-4 -19 -12 -21 -12 -4 -12 -3 -2 5 11 7 10 12 -3 26 -15 15 -10 21 16 18 3 -1
6 6 6 14 0 7 -4 14 -9 14 -4 0 -8 -4 -8 -9 0 -5 -10 -13 -22 -17 -19 -6 -19
-7 -5 -16 22 -12 5 -50 -18 -42 -18 7 -20 -12 -3 -22 6 -4 8 -3 5 2 -3 5 3 10
13 10 18 0 21 -19 5 -33 -4 -4 -5 -2 -1 5 12 20 -7 13 -31 -12 -17 -18 -20
-26 -10 -36 10 -10 9 -11 -2 -5 -11 6 -13 4 -8 -9 6 -14 3 -15 -13 -6 -11 6
-24 8 -29 5 -5 -3 -8 3 -7 12 2 9 9 19 16 21 7 3 10 0 6 -6 -3 -6 -1 -14 5
-18 7 -4 9 -3 5 4 -3 6 -2 13 4 17 6 4 7 11 4 17 -5 7 -2 8 6 3 9 -6 11 -4 5
5 -5 8 -4 11 2 7 5 -3 10 0 10 8 0 8 -4 15 -9 15 -5 0 -7 4 -4 9 7 11 -21 8
-31 -4 -4 -4 -3 -5 4 -1 6 3 15 1 19 -5 7 -13 -33 -52 -45 -45 -3 2 -7 -9 -7
-25 -1 -21 2 -29 11 -25 8 3 19 -3 27 -12 12 -15 11 -16 -4 -3 -20 15 -25 2
-6 -17 7 -7 8 -12 4 -12 -5 0 -15 8 -23 18 -8 9 -12 12 -10 7 3 -6 -6 -24 -20
-40 -16 -19 -21 -22 -14 -8 6 12 8 23 3 26 -4 2 -1 2 6 0 8 -1 10 2 6 9 -4 6
-3 8 4 5 6 -5 8 1 4 15 -4 16 -7 18 -10 8 -8 -23 -35 -40 -57 -35 -11 3 -14 2
-7 -1 7 -3 17 -14 22 -24 8 -15 6 -18 -8 -15 -9 2 -17 4 -17 5 0 1 -13 3 -30
5 -44 4 -47 4 -42 13 3 4 -8 7 -24 8 -32 1 -51 14 -32 21 8 3 7 10 -4 23 -9
10 -21 16 -26 13 -6 -4 -8 1 -4 11 4 9 3 15 -2 11 -6 -3 -9 -14 -8 -25 1 -13
5 -16 13 -9 8 6 13 5 17 -5 3 -8 0 -17 -8 -20 -15 -5 -39 17 -28 27 3 4 1 7
-7 7 -9 0 -10 3 -1 14 6 8 11 18 9 22 -4 14 22 57 46 77 11 10 15 16 8 12 -8
-4 -3 9 10 29 13 20 27 36 31 36 5 0 5 -5 1 -12 -4 -7 -3 -8 5 -4 9 6 9 11 0
22 -9 11 -8 14 5 14 9 0 16 6 15 13 -3 16 22 67 33 67 5 0 2 -10 -6 -22 -21
-29 -20 -37 3 -35 16 1 18 4 8 15 -9 11 -7 17 6 27 17 12 17 13 0 19 -17 7
-17 8 0 17 9 6 17 17 17 24 0 8 5 15 11 15 5 0 7 5 3 12 -4 7 -3 8 5 4 6 -4 9
-12 6 -17 -4 -5 1 -12 9 -15 9 -3 13 -11 9 -17 -4 -6 -1 -7 7 -2 10 6 10 10
-2 19 -14 10 -14 15 -2 36 12 22 19 20 15 -3 -1 -5 3 -6 9 -2 8 5 8 11 -1 21
-9 11 -8 15 5 19 9 3 23 7 32 10 8 3 12 9 9 15 -3 5 0 10 7 10 9 0 9 3 -2 10
-13 8 -11 11 8 16 12 4 22 10 22 15 0 4 10 18 23 29 19 18 19 20 3 14 -13 -5
-17 -4 -12 4 3 6 1 14 -5 18 -8 5 -9 3 -4 -6 5 -8 4 -11 -3 -6 -6 3 -14 1 -18
-5 -5 -8 -2 -10 7 -5 8 4 6 1 -3 -7 -10 -8 -18 -18 -18 -22 0 -4 7 -1 17 6 14
12 16 12 11 -1 -3 -8 -12 -14 -21 -14 -9 1 -14 -3 -10 -9 4 -6 1 -7 -8 -2 -8
5 -11 4 -6 0 4 -5 -1 -17 -10 -28 -10 -11 -13 -17 -6 -14 6 4 15 2 18 -4 5 -7
0 -10 -11 -7 -12 2 -27 -7 -41 -26 -13 -16 -23 -25 -23 -19 0 7 7 19 16 27 8
9 12 21 8 27 -4 7 -3 10 2 7 5 -3 15 0 22 8 7 8 10 14 6 14 -3 0 -1 6 5 13 6
8 7 18 3 22 -4 5 -2 5 4 2 7 -4 17 5 24 22 6 16 18 32 27 35 8 3 12 10 8 15
-3 5 0 13 6 17 8 4 9 3 5 -4 -4 -7 -2 -12 3 -12 6 0 11 7 11 15 0 8 5 15 11
15 5 0 7 5 4 10 -4 6 -11 7 -17 4 -7 -4 -8 -2 -4 5 6 8 12 9 20 2 13 -11 26
-5 26 11 0 5 -4 6 -10 3 -5 -3 -10 -1 -10 5 0 7 7 10 15 6 8 -3 15 -1 15 4 0
6 5 10 11 10 7 0 5 -10 -5 -25 -10 -15 -12 -25 -6 -25 6 0 9 -4 6 -8 -3 -5 2
-9 10 -9 10 0 11 4 4 11 -15 15 -12 30 4 17 11 -9 16 -9 22 0 4 7 3 9 -4 5 -7
-4 -10 1 -9 14 2 24 5 25 31 3 20 -18 21 -17 5 2 -17 22 -18 33 -5 53 6 10 11
10 22 1 10 -8 14 -8 14 0 0 6 -5 11 -11 11 -5 0 -8 4 -4 9 8 14 -9 21 -25 10
-13 -7 -13 -9 -1 -9 9 0 7 -6 -8 -19 -15 -13 -18 -20 -9 -23 7 -3 -1 -5 -19
-5 -18 0 -30 4 -27 9 3 4 11 8 18 8 8 0 20 7 27 16 12 15 11 16 -11 10 -25 -6
-25 -6 -2 5 12 7 22 18 22 25 0 7 10 18 23 24 20 10 20 10 5 -3 -19 -15 -25
-32 -8 -22 6 4 18 1 27 -7 13 -10 17 -10 21 0 6 20 33 43 43 37 5 -4 9 -1 9 4
0 14 -6 14 -31 1 -14 -8 -19 -7 -19 2 0 9 -2 10 -8 2 -5 -8 -11 -7 -22 4 -13
14 -12 15 4 9 14 -6 17 -4 12 10 -5 16 -4 16 9 -1 11 -15 17 -16 28 -8 8 7 17
9 21 5 4 -4 4 1 0 12 -7 18 -6 19 11 5 18 -15 18 -14 1 11 -16 25 -16 27 3 32
11 2 24 0 30 -6 7 -7 6 0 -1 15 -7 15 -16 24 -20 21 -5 -2 -6 -8 -4 -12 3 -4
-4 -8 -15 -8 -10 -1 -19 0 -19 2 0 9 75 48 96 49 13 1 26 5 30 8 8 8 44 -13
38 -23z m-129 11 c-3 -5 -12 -10 -18 -10 -7 0 -6 4 3 10 19 12 23 12 15 0z
m-1819 -25 c-9 -14 -13 -25 -10 -25 4 0 0 -8 -9 -17 -8 -10 -38 -53 -66 -95
-28 -43 -53 -78 -55 -78 -7 0 97 164 109 172 5 4 10 11 10 15 1 12 25 53 32
53 3 0 -2 -11 -11 -25z m2394 11 c0 -2 -7 -7 -16 -10 -8 -3 -12 -2 -9 4 6 10
25 14 25 6z m-1583 -31 c-9 -7 -14 -15 -10 -18 3 -4 1 -7 -5 -7 -17 0 -15 20
3 26 8 4 12 11 8 17 -4 6 -1 7 7 2 10 -6 10 -11 -3 -20z m-1347 -13 c0 -10 -3
-13 -8 -7 -10 14 -32 17 -32 5 0 -5 6 -10 13 -10 8 0 7 -4 -3 -10 -8 -5 -19
-10 -25 -10 -5 0 -3 5 5 10 12 8 12 10 1 10 -22 0 4 25 28 27 14 1 21 -4 21
-15z m2317 -11 c9 -15 9 -23 -2 -37 -13 -18 -14 -18 -15 -1 0 9 -4 17 -10 17
-5 0 -10 5 -10 12 0 9 3 9 12 0 20 -20 32 -13 13 8 -10 11 -14 20 -9 20 5 0
15 -9 21 -19z m-517 -1 c0 -5 -2 -10 -4 -10 -3 0 -8 5 -11 10 -3 6 -1 10 4 10
6 0 11 -4 11 -10z m1180 -15 c-7 -8 -9 -15 -5 -15 4 0 1 -7 -6 -16 -15 -18
-23 -58 -10 -50 5 3 15 -1 22 -10 11 -14 10 -18 -6 -30 -10 -8 -15 -14 -9 -14
5 0 0 -7 -11 -16 -11 -8 -19 -17 -17 -19 6 -12 1 -25 -9 -25 -8 0 -8 5 1 15 8
9 9 15 2 15 -6 0 -14 -5 -18 -11 -4 -8 -12 -3 -20 12 -16 29 -17 39 -4 39 6 0
9 -3 9 -7 -3 -20 2 -33 13 -33 6 0 8 3 4 7 -4 4 10 17 31 30 21 13 32 23 25
23 -7 0 -10 5 -6 12 4 7 3 8 -5 4 -6 -4 -9 -12 -6 -17 4 -5 1 -9 -4 -9 -6 0
-11 3 -12 8 0 4 -2 17 -3 30 -2 12 3 27 11 33 7 6 10 16 7 21 -3 5 -12 1 -18
-8 -10 -13 -15 -14 -21 -4 -5 8 -4 11 3 6 6 -3 14 3 17 15 4 11 13 18 20 15 7
-2 16 2 19 11 4 9 9 13 13 10 3 -4 0 -13 -7 -22z m-1035 5 c3 -5 1 -10 -4 -10
-6 0 -11 5 -11 10 0 6 2 10 4 10 3 0 8 -4 11 -10z m-1955 -15 c-7 -9 -15 -13
-19 -10 -3 3 1 10 9 15 21 14 24 12 10 -5z m1936 -62 c-3 -4 -6 -1 -6 6 0 7
-4 9 -10 6 -6 -4 -7 1 -3 11 6 15 7 15 15 -1 6 -9 7 -19 4 -22z m-169 13 c0
-8 -6 -12 -14 -9 -7 3 -10 9 -7 14 8 14 21 11 21 -5z m1163 0 c0 -2 -8 -10
-17 -17 -16 -13 -17 -12 -4 4 13 16 21 21 21 13z m-635 -25 c-3 -6 -11 -8 -17
-5 -6 4 -5 9 3 15 16 10 23 4 14 -10z m636 -44 c-10 -9 -11 -8 -5 6 3 10 9 15
12 12 3 -3 0 -11 -7 -18z m-1226 -27 c3 -5 1 -10 -4 -10 -6 0 -11 5 -11 10 0
6 2 10 4 10 3 0 8 -4 11 -10z m142 -22 c-3 -8 -6 -5 -6 6 -1 11 2 17 5 13 3
-3 4 -12 1 -19z m-1993 -4 c5 -14 4 -15 -9 -4 -17 14 -19 20 -6 20 5 0 12 -7
15 -16z m534 -4 c-7 -10 -14 -17 -17 -15 -4 4 18 35 25 35 2 0 -1 -9 -8 -20z
m2496 9 c-2 -4 2 -10 8 -12 7 -3 8 -6 2 -6 -5 -1 -18 5 -28 12 -16 12 -16 13
3 13 11 0 18 -3 15 -7z m-1199 -9 c-3 -5 -12 -10 -18 -10 -7 0 -6 4 3 10 19
12 23 12 15 0z m-95 -4 c0 -2 -7 -7 -16 -10 -8 -3 -12 -2 -9 4 6 10 25 14 25
6z m1281 -40 c5 3 7 9 5 13 -3 4 0 8 7 8 7 0 17 2 22 3 6 1 16 2 24 1 11 -1
11 -4 1 -16 -7 -8 -17 -12 -23 -8 -6 4 -8 0 -4 -11 5 -11 3 -15 -5 -10 -7 5
-9 2 -5 -8 6 -18 -29 -61 -44 -53 -5 4 -9 2 -9 -4 0 -5 6 -12 13 -15 8 -3 6
-9 -7 -20 -11 -9 -16 -16 -12 -16 10 0 -22 -45 -34 -46 -23 -3 -24 -5 -12 -13
10 -6 7 -12 -12 -25 -14 -9 -26 -12 -26 -6 0 5 6 10 13 10 8 0 7 4 -3 10 -23
15 -26 12 -26 -20 0 -34 -1 -34 29 -19 20 9 20 9 5 -4 -10 -8 -14 -17 -10 -21
4 -4 1 -6 -7 -4 -7 2 -15 -5 -16 -15 -4 -24 -13 -32 -22 -23 -4 4 -1 11 7 16
11 7 11 10 2 10 -7 0 -15 -7 -18 -15 -4 -8 -11 -12 -18 -9 -6 3 -3 -1 7 -9 9
-8 17 -18 17 -22 0 -5 -3 -5 -6 -2 -4 4 -20 -3 -36 -15 -22 -15 -32 -18 -41
-9 -16 16 -32 14 -18 -2 6 -8 7 -18 3 -22 -4 -5 1 -5 11 -2 10 4 16 3 13 -2
-3 -5 2 -12 12 -16 16 -6 15 -8 -3 -21 -11 -8 -19 -17 -17 -20 2 -2 2 -8 -1
-12 -2 -4 -2 -2 -1 5 2 6 -6 11 -17 10 -21 -1 -26 -22 -6 -31 9 -5 9 -7 -1
-12 -6 -3 -9 -11 -5 -17 3 -7 3 -9 -2 -5 -4 4 -16 3 -26 -3 -16 -8 -17 -14 -9
-30 8 -15 8 -19 -2 -17 -7 2 -12 -4 -10 -12 2 -12 -1 -11 -11 2 -21 27 -28 9
-9 -20 9 -15 12 -23 5 -19 -6 4 -14 1 -17 -5 -3 -7 -3 -2 0 12 5 24 4 24 -10
6 -9 -11 -16 -23 -16 -28 0 -4 -4 -8 -8 -8 -5 0 -9 7 -9 15 0 8 4 12 9 9 4 -3
8 0 8 6 0 6 -8 10 -17 8 -10 -2 -17 -10 -15 -18 2 -8 -5 -20 -15 -28 -17 -13
-17 -14 2 -8 25 7 54 -29 30 -38 -8 -3 -17 0 -21 6 -4 7 -3 8 4 4 12 -7 17 6
6 17 -10 9 -34 -4 -27 -16 3 -6 1 -7 -6 -3 -6 4 -13 0 -17 -11 -3 -10 -10 -26
-15 -35 -13 -24 -12 -28 9 -28 9 -1 3 -7 -16 -15 -18 -8 -31 -19 -27 -25 3 -5
1 -10 -4 -10 -6 0 -11 7 -11 15 0 8 -4 15 -9 15 -18 0 -4 -54 15 -61 16 -6 16
-8 2 -8 -9 -1 -20 4 -23 9 -3 6 -11 10 -17 10 -6 0 -6 -6 2 -15 7 -9 10 -18 7
-22 -4 -3 -9 2 -13 11 -3 9 -10 13 -16 10 -5 -3 -4 -12 4 -21 10 -13 7 -20
-22 -45 -24 -20 -29 -28 -15 -24 l20 6 -20 -16 c-11 -8 -19 -23 -17 -32 2 -14
1 -15 -7 -2 -5 8 -8 17 -5 21 2 4 0 11 -6 14 -8 5 -7 11 1 21 6 8 8 14 5 14
-4 0 -2 8 3 18 16 29 -7 46 -32 24 -14 -12 -19 -13 -15 -3 2 8 20 22 38 33 19
10 30 18 25 18 -6 1 0 9 12 19 12 10 20 21 18 23 -3 3 5 4 18 3 21 -2 37 10
37 29 0 5 -8 2 -17 -5 -12 -10 -11 -5 5 17 12 17 18 34 15 38 -4 4 0 4 10 0 9
-3 17 -10 17 -16 0 -5 -5 -6 -11 -2 -7 4 -10 1 -7 -6 2 -7 11 -14 19 -15 11
-2 16 6 16 26 0 15 -4 26 -8 23 -4 -2 -11 1 -15 7 -5 8 -3 9 6 4 9 -6 12 -4 8
6 -3 8 0 23 8 34 8 10 14 13 14 6 0 -7 4 -10 9 -7 4 3 7 18 5 33 -2 25 -1 26
10 11 21 -29 30 -21 12 10 -17 27 -17 27 2 6 18 -22 19 -22 31 -2 10 16 9 19
-5 16 -9 -2 -19 4 -21 12 -4 13 -3 13 6 0 10 -13 11 -13 12 0 1 8 1 20 0 27
-1 6 3 14 9 18 6 4 7 -1 3 -12 -3 -10 -3 -15 2 -11 4 4 14 3 20 -2 9 -8 13 -4
13 15 0 13 -4 22 -9 20 -4 -3 -11 0 -15 6 -4 7 -3 9 4 5 6 -3 14 -2 17 4 4 6
16 8 28 4 19 -6 20 -5 9 9 -8 9 -19 15 -25 13 -7 -1 -9 -1 -4 1 4 3 5 9 2 14
-4 5 0 6 7 4 13 -5 34 11 66 50 12 14 8 19 -10 16 -4 0 -5 6 -1 15 3 9 9 11
12 6 7 -10 57 17 60 33 2 5 -6 13 -16 17 -14 7 -13 8 5 4 15 -3 22 0 19 7 -2
7 -12 11 -22 10 -12 -1 -14 2 -6 10 7 7 14 7 24 -1 11 -9 18 -8 31 7 10 11 25
17 34 15 15 -5 15 -4 1 5 -19 12 -61 3 -52 -12 3 -6 1 -7 -6 -3 -13 9 -5 26
12 26 7 0 23 7 35 16 20 13 21 18 10 32 -11 15 -11 15 2 6 9 -7 23 -8 35 -3
11 4 14 8 6 8 -10 1 -11 4 -2 15 9 11 9 15 -1 19 -7 3 1 4 17 2 28 -2 44 8 45
28 0 5 -5 5 -11 1 -8 -4 -8 0 0 15 7 12 8 21 2 21 -5 0 -12 -6 -15 -12 -2 -7
-4 -3 -2 9 1 12 6 26 12 30 5 5 6 4 2 -1 -9 -10 23 -37 34 -30 12 8 9 24 -3
22 -6 -2 -14 4 -16 12 -4 12 -3 12 5 1 6 -8 12 -9 16 -3 3 6 2 13 -4 17 -5 3
-10 11 -10 18 0 6 6 2 14 -8 8 -11 12 -23 10 -27 -3 -5 -1 -8 5 -8 18 0 21 17
6 30 -8 7 -14 22 -14 34 2 20 2 20 6 -2 2 -12 9 -20 14 -16z m-3028 9 c-3 -9
-8 -14 -10 -11 -3 3 -2 9 2 15 9 16 15 13 8 -4z m1827 11 c0 -2 -7 -7 -16 -10
-8 -3 -12 -2 -9 4 6 10 25 14 25 6z m-1307 -21 c-3 -9 -8 -14 -10 -11 -3 3 -2
9 2 15 9 16 15 13 8 -4z m1202 6 c3 -5 2 -12 -3 -15 -5 -3 -9 1 -9 9 0 17 3
19 12 6z m229 -7 c3 -8 2 -12 -4 -9 -6 3 -10 10 -10 16 0 14 7 11 14 -7z m29
-14 c-3 -12 -8 -19 -11 -16 -5 6 5 36 12 36 2 0 2 -9 -1 -20z m-189 -6 c3 -8
2 -12 -4 -9 -6 3 -10 10 -10 16 0 14 7 11 14 -7z m1669 -1 c11 -10 17 -12 13
-5 -4 6 -2 12 3 12 6 0 11 -8 12 -17 0 -10 3 -13 5 -7 6 13 54 6 54 -8 0 -5 5
-6 10 -3 6 3 10 1 10 -5 0 -6 4 -9 9 -6 13 8 78 -29 73 -42 -5 -16 15 -16 21
1 3 7 6 8 6 1 1 -6 -10 -28 -24 -48 -14 -20 -25 -39 -25 -42 0 -14 -54 -83
-61 -78 -5 3 -6 -1 -3 -9 7 -18 -57 -82 -94 -95 -31 -10 -92 -7 -101 5 -3 5
-13 8 -21 8 -8 -1 -31 5 -50 13 -19 7 -44 15 -54 18 -32 6 -44 24 -23 35 9 6
15 14 12 20 -4 5 -1 9 4 9 11 0 15 -13 12 -37 -1 -7 9 -17 21 -23 21 -10 21
-10 6 3 -24 19 -23 27 5 28 21 0 21 1 2 8 -13 5 -20 18 -20 34 -1 14 2 24 6
21 4 -2 10 0 14 6 3 5 1 10 -4 10 -6 0 -11 5 -11 11 0 8 4 8 14 0 10 -8 16 -9
21 -1 3 5 0 10 -7 10 -7 1 1 8 17 17 17 9 25 18 19 20 -7 2 0 17 17 36 21 22
25 33 16 39 -6 4 -7 8 -2 8 15 -1 50 -30 37 -31 -7 -1 -17 -2 -24 -3 -6 0 -13
-7 -16 -15 -3 -9 0 -11 9 -6 8 5 4 -3 -9 -17 -12 -13 -19 -28 -15 -33 5 -4 2
-5 -6 0 -9 5 -12 4 -7 -3 5 -8 1 -10 -11 -6 -15 5 -16 4 -3 -5 13 -9 13 -11 0
-11 -9 -1 -5 -6 10 -15 30 -17 40 -18 40 -5 0 6 -3 9 -7 9 -21 -3 -34 2 -28
11 4 6 11 7 17 4 6 -4 8 -2 4 4 -3 6 4 18 16 26 12 9 17 16 10 16 -7 0 -10 5
-7 10 5 8 11 8 19 1 9 -8 13 -7 13 4 0 8 -4 12 -9 9 -4 -3 -8 -1 -8 5 0 5 9
13 21 16 l21 7 -21 15 c-12 8 -19 18 -16 23 3 4 -1 11 -7 13 -8 3 -6 6 5 6 15
1 21 -9 19 -29 0 -3 12 -6 27 -5 29 0 41 29 15 39 -7 3 -13 2 -13 -2 5 -29 -4
-33 -17 -8 -13 24 -14 30 -2 37 18 12 19 12 41 -8z m-2966 -15 c-3 -8 -6 -5
-6 6 -1 11 2 17 5 13 3 -3 4 -12 1 -19z m1440 16 c-3 -3 -12 -4 -19 -1 -8 3
-5 6 6 6 11 1 17 -2 13 -5z m-152 -24 c3 -5 1 -10 -4 -10 -6 0 -11 5 -11 10 0
6 2 10 4 10 3 0 8 -4 11 -10z m-105 -16 c0 -8 -19 -13 -24 -6 -3 5 1 9 9 9 8
0 15 -2 15 -3z m83 -19 c-7 -21 -12 -19 -10 4 0 11 5 18 9 15 4 -3 5 -11 1
-19z m145 8 c-3 -17 -38 -28 -38 -11 0 6 7 8 15 4 9 -3 15 0 15 9 0 8 3 15 6
15 3 0 4 -7 2 -17z m-678 -12 c0 -4 -7 -8 -15 -8 -16 0 -20 9 -9 20 8 8 24 -1
24 -12z m60 5 c0 -3 -4 -8 -10 -11 -5 -3 -10 -1 -10 4 0 6 5 11 10 11 6 0 10
-2 10 -4z m446 -36 c0 -12 -4 -16 -9 -11 -5 5 -6 14 -3 20 10 15 12 14 12 -9z
m1214 10 c0 -5 -4 -10 -10 -10 -5 0 -10 5 -10 10 0 6 5 10 10 10 6 0 10 -4 10
-10z m-1065 -19 c-3 -6 -11 -11 -16 -11 -5 0 -4 6 3 14 14 16 24 13 13 -3z
m1035 15 c0 -2 -7 -7 -16 -10 -8 -3 -12 -2 -9 4 6 10 25 14 25 6z m-3050 -36
c0 -5 -2 -10 -4 -10 -3 0 -8 5 -11 10 -3 6 -1 10 4 10 6 0 11 -4 11 -10z
m1847 -5 c0 -8 -4 -12 -9 -9 -5 3 -6 10 -3 15 9 13 12 11 12 -6z m99 -7 c-9
-5 -22 -7 -29 -4 -7 2 -4 5 6 5 10 1 15 5 12 11 -4 6 1 7 11 3 15 -6 15 -7 0
-15z m1081 0 c-3 -8 -6 -5 -6 6 -1 11 2 17 5 13 3 -3 4 -12 1 -19z m-1024 0
c-4 -7 -8 -19 -9 -26 -2 -8 -5 -17 -8 -20 -9 -8 -2 30 7 46 5 6 10 12 13 12 3
0 2 -6 -3 -12z m-633 -2 c0 -2 -7 -7 -16 -10 -8 -3 -12 -2 -9 4 6 10 25 14 25
6z m2065 -6 c-3 -5 -12 -10 -18 -10 -7 0 -6 4 3 10 19 12 23 12 15 0z m-1618
-22 c-3 -8 -6 -5 -6 6 -1 11 2 17 5 13 3 -3 4 -12 1 -19z m144 -7 c-10 -17
-41 -20 -41 -4 0 3 7 2 16 -1 12 -5 15 -2 10 9 -3 9 -2 13 4 10 6 -3 10 -1 10
6 0 7 3 10 6 7 3 -4 1 -16 -5 -27z m-58 -7 c-17 -26 -17 -26 4 -20 25 8 36 -4
21 -24 -8 -12 -9 -11 -4 3 5 15 2 17 -13 12 -26 -8 -33 7 -15 33 22 31 28 27
7 -4z m1093 14 c4 -7 3 -8 -4 -4 -7 4 -12 2 -12 -5 0 -7 -3 -10 -6 -6 -6 5 3
27 11 27 2 0 7 -5 11 -12z m1108 4 c3 -5 -1 -9 -9 -9 -8 0 -12 4 -9 9 3 4 7 8
9 8 2 0 6 -4 9 -8z m46 -25 c0 -7 -4 -6 -10 3 -8 12 -10 12 -10 1 0 -8 -3 -12
-6 -8 -9 9 6 28 17 22 5 -4 9 -12 9 -18z m-48 -19 c-7 -7 -8 -16 -3 -22 6 -7
4 -18 -3 -28 -11 -15 -13 -13 -12 21 0 22 4 37 8 34 5 -2 8 1 8 8 0 7 3 9 7 6
4 -4 1 -13 -5 -19z m-2194 -34 c2 -1 -4 -4 -13 -8 -9 -3 -13 -2 -10 4 3 6 1
10 -4 10 -6 0 -11 5 -11 11 0 8 6 7 18 -2 9 -7 18 -14 20 -15z m-143 -3 c3 -5
2 -12 -3 -15 -5 -3 -9 1 -9 9 0 17 3 19 12 6z m109 -41 c0 -19 -5 -24 -22 -24
-12 0 -22 3 -22 7 0 30 1 31 10 17 9 -13 11 -13 20 0 7 11 5 17 -8 22 -14 7
-14 7 3 5 13 -1 19 -10 19 -27z m41 9 c-4 -5 -12 -9 -18 -8 -9 0 -8 2 1 6 6 2
9 10 6 15 -4 7 -2 8 5 4 6 -4 9 -12 6 -17z m-174 -16 c-14 -24 -55 -72 -45
-53 10 20 47 70 51 70 2 0 -1 -8 -6 -17z m1153 5 c-5 -8 -1 -9 12 -4 14 5 16
4 7 -5 -13 -13 -37 -3 -28 12 4 5 8 9 11 9 3 0 2 -5 -2 -12z m1169 -23 c-10
-13 -20 -21 -22 -19 -2 2 3 12 12 22 10 10 14 22 10 27 -5 4 -2 5 5 1 9 -6 8
-13 -5 -31z m-39 7 c3 -5 -1 -9 -9 -9 -8 0 -15 4 -15 9 0 4 4 8 9 8 6 0 12 -4
15 -8z m-2207 -34 c-3 -8 -6 -5 -6 6 -1 11 2 17 5 13 3 -3 4 -12 1 -19z m40
-3 c0 -8 -4 -12 -9 -9 -4 3 -8 9 -8 15 0 5 4 9 8 9 5 0 9 -7 9 -15z m-53 -27
c-3 -4 -11 -8 -17 -7 -9 0 -9 2 0 5 7 3 9 13 6 22 -4 14 -3 14 5 2 6 -8 8 -18
6 -22z m1172 17 c-10 -7 -15 -18 -11 -24 4 -7 0 -8 -11 -4 -15 6 -15 8 6 25
12 10 25 18 29 18 3 0 -2 -7 -13 -15z m1061 0 c5 -4 2 -5 -6 0 -10 6 -13 4 -9
-7 5 -11 0 -14 -17 -14 -13 1 -27 5 -31 9 -4 3 3 4 16 2 15 -3 20 0 17 9 -6
15 17 16 30 1z m-2197 -15 c0 -5 -4 -10 -10 -10 -5 0 -10 5 -10 10 0 6 5 10
10 10 6 0 10 -4 10 -10z m1014 -5 c-4 -8 -8 -15 -10 -15 -2 0 -4 7 -4 15 0 8
4 15 10 15 5 0 7 -7 4 -15z m-1174 -19 c0 -2 -8 -10 -17 -17 -16 -13 -17 -12
-4 4 13 16 21 21 21 13z m97 -15 c0 -11 -5 -17 -9 -15 -4 3 -8 0 -8 -7 0 -7
-3 -9 -6 -6 -4 4 -2 13 4 20 7 8 9 17 5 20 -3 4 -1 7 5 7 6 0 10 -9 9 -19z
m40 6 c0 -8 -6 -14 -13 -14 -7 0 -10 6 -7 14 3 7 8 13 12 13 4 0 8 -6 8 -13z
m2191 -4 c-12 -15 -22 -18 -14 -4 4 5 0 11 -6 14 -7 3 -3 4 9 4 17 -1 19 -4
11 -14z m-32 -5 c4 -7 3 -8 -4 -4 -7 4 -12 2 -12 -5 0 -7 -3 -10 -6 -6 -6 5 3
27 11 27 2 0 7 -5 11 -12z m411 1 c-13 -8 -15 -14 -7 -29 8 -15 6 -21 -10 -30
-11 -6 -18 -15 -15 -19 10 -17 -24 -19 -36 -3 -8 9 -9 14 -5 10 5 -4 22 0 37
9 22 13 26 20 17 30 -12 14 5 43 26 43 6 0 3 -5 -7 -11z m-2591 -34 c-1 -8 -6
-18 -11 -22 -4 -4 -5 -2 -1 5 4 7 2 12 -6 12 -9 0 -9 3 2 10 19 12 19 13 16
-5z m-676 -7 c0 -6 -3 -8 -7 -5 -3 4 -17 -2 -29 -14 -19 -18 -21 -26 -13 -43
10 -21 10 -21 -6 -1 -9 11 -18 19 -20 18 -17 -10 -25 -1 -15 17 6 11 15 18 19
15 5 -2 13 1 19 8 14 16 52 19 52 5z m2854 -5 c4 -10 1 -11 -14 -3 -15 8 -21
6 -30 -9 -15 -29 -12 -39 5 -17 12 16 17 17 28 7 8 -8 8 -11 1 -9 -7 2 -11 0
-10 -3 0 -4 -7 -16 -17 -26 -9 -11 -15 -22 -12 -25 3 -3 -6 -17 -19 -31 -13
-14 -21 -28 -18 -31 3 -3 0 -6 -7 -6 -7 0 -9 -4 -6 -10 3 -5 1 -10 -4 -10 -6
0 -11 -7 -11 -15 0 -8 -5 -15 -11 -15 -5 0 -7 5 -3 12 4 6 3 8 -4 5 -5 -4 -8
-17 -5 -30 4 -20 3 -21 -10 -4 -8 9 -18 17 -22 17 -4 0 -2 -7 5 -15 16 -19 7
-54 -23 -85 -13 -14 -25 -29 -28 -35 -2 -5 -8 -9 -13 -7 -5 2 -6 -4 -3 -12 3
-8 -1 -22 -8 -33 -13 -17 -13 -16 -11 10 3 20 0 25 -7 18 -14 -14 -16 -51 -3
-51 6 -1 -1 -8 -17 -16 -15 -8 -32 -12 -39 -8 -6 4 -9 1 -6 -7 3 -8 14 -13 24
-12 18 1 18 1 -1 -12 -11 -8 -26 -20 -34 -27 -13 -10 -13 -9 -7 7 12 28 9 57
-6 66 -7 5 7 6 32 3 40 -5 43 -4 26 9 -11 8 -33 12 -50 11 -21 -3 -27 -1 -17
5 8 5 21 7 30 4 12 -3 11 0 -3 11 -18 15 -19 16 -2 16 12 0 16 5 12 16 -3 9
-2 12 5 9 5 -4 7 -15 4 -25 -4 -14 -1 -17 12 -15 10 2 20 4 23 4 3 1 -2 6 -10
11 -10 7 -11 10 -2 11 6 1 17 3 22 4 6 1 15 3 21 4 5 0 7 6 3 13 -5 7 -3 8 6
3 9 -6 11 -4 5 5 -6 9 -4 11 5 5 9 -6 11 -4 5 5 -5 8 -4 11 3 6 6 -3 13 -3 16
2 10 16 -29 9 -41 -7 -11 -15 -12 -14 -13 1 0 9 4 19 10 23 5 3 7 13 4 23 -5
15 -4 15 8 1 7 -8 22 -18 33 -22 17 -6 16 -4 -4 12 -18 14 -21 20 -10 24 8 3
3 4 -11 3 -16 -2 -25 -9 -25 -21 0 -10 -5 -20 -12 -22 -12 -4 -11 15 2 48 4
10 -2 19 -17 27 -13 6 -18 11 -12 11 7 1 10 14 8 34 -3 23 -1 28 6 17 5 -8 10
-11 10 -6 0 11 30 -14 30 -26 0 -5 -4 -6 -10 -3 -6 3 -7 -1 -4 -10 9 -22 16
-12 20 27 3 24 1 29 -6 18 -5 -8 -10 -10 -10 -4 0 17 22 33 38 27 10 -4 13 -2
8 5 -5 8 -1 10 11 5 16 -6 16 -5 4 10 -8 10 -12 19 -10 21 2 2 13 -8 23 -22
11 -14 15 -23 10 -20 -5 4 -20 0 -34 -7 -24 -13 -24 -14 -2 -12 12 1 22 5 22
10 0 4 5 5 10 2 6 -4 7 -11 4 -17 -5 -7 -2 -8 6 -3 10 6 12 4 6 -11 -6 -15 -5
-16 5 -7 10 10 9 15 -1 27 -10 13 -9 17 5 22 10 4 21 1 27 -7 8 -11 9 -10 4 4
-4 13 0 20 14 24 26 7 26 18 0 20 -11 1 -19 -3 -17 -9 1 -6 -4 -13 -10 -15
-17 -6 -16 8 3 32 11 14 18 16 21 8 6 -18 36 13 40 41 2 11 4 26 5 32 2 15 46
12 52 -3z m370 8 c3 -5 0 -11 -7 -14 -8 -3 -14 1 -14 9 0 16 13 19 21 5z
m-2704 -15 c0 -2 -7 -7 -16 -10 -8 -3 -12 -2 -9 4 6 10 25 14 25 6z m134 -12
c3 -8 2 -12 -4 -9 -6 3 -10 10 -10 16 0 14 7 11 14 -7z m3232 -7 c1 -9 -2 -20
-7 -23 -6 -4 -6 -10 0 -18 7 -9 4 -12 -14 -12 -13 0 -22 3 -19 7 2 4 1 9 -3
12 -5 2 -3 2 4 1 6 -2 17 4 23 11 10 12 9 16 -4 21 -9 3 -13 10 -10 16 9 13
27 5 30 -15z m-31 -15 c-3 -3 -11 0 -18 7 -9 10 -8 11 6 5 10 -3 15 -9 12 -12z
m-1078 -8 c-3 -3 -12 -4 -19 -1 -8 3 -5 6 6 6 11 1 17 -2 13 -5z m-2304 -19
c-3 -9 -8 -14 -10 -11 -3 3 -2 9 2 15 9 16 15 13 8 -4z m2240 -16 c-6 -6 -9
-19 -6 -28 7 -17 5 -16 -17 13 -8 11 -10 17 -3 13 6 -4 14 -3 18 3 3 5 9 10
13 10 3 0 1 -5 -5 -11z m-2773 -9 c0 -5 -5 -10 -11 -10 -5 0 -7 5 -4 10 3 6 8
10 11 10 2 0 4 -4 4 -10z m1365 0 c-3 -5 -12 -10 -18 -10 -7 0 -6 4 3 10 19
12 23 12 15 0z m1855 0 c0 -5 -2 -10 -4 -10 -3 0 -8 5 -11 10 -3 6 -1 10 4 10
6 0 11 -4 11 -10z m675 0 c3 -5 1 -10 -4 -10 -6 0 -11 5 -11 10 0 6 2 10 4 10
3 0 8 -4 11 -10z m-1820 -70 c-15 -16 -34 -26 -42 -23 -11 4 -9 9 7 20 11 8
18 19 14 24 -3 5 0 8 8 7 8 -2 12 4 10 16 -3 18 -3 18 14 2 16 -16 15 -19 -11
-46z m1795 50 c8 -5 11 -10 5 -10 -5 0 -17 5 -25 10 -8 5 -10 10 -5 10 6 0 17
-5 25 -10z m-713 -15 c0 -8 -4 -12 -9 -9 -5 3 -6 10 -3 15 9 13 12 11 12 -6z
m-497 -5 c0 -5 -2 -10 -4 -10 -3 0 -8 5 -11 10 -3 6 -1 10 4 10 6 0 11 -4 11
-10z m-927 -45 c-3 -9 -8 -14 -10 -11 -3 3 -2 9 2 15 9 16 15 13 8 -4z m-458
-25 c3 -5 1 -10 -4 -10 -6 0 -11 5 -11 10 0 6 2 10 4 10 3 0 8 -4 11 -10z
m2566 3 c0 -5 2 -15 4 -24 2 -10 -3 -16 -12 -15 -9 0 -17 -7 -19 -17 -3 -23
-10 -30 -29 -33 -8 -1 -13 2 -9 7 3 5 10 6 16 3 7 -5 9 -1 5 9 -3 9 -2 19 4
23 6 3 8 12 5 19 -3 9 2 11 17 8 22 -4 22 -4 3 11 -17 14 -18 16 -3 16 9 0 17
-3 18 -7z m-2154 -38 c5 -4 2 -5 -6 0 -11 6 -13 4 -7 -11 4 -10 4 -15 0 -11
-4 4 -14 1 -23 -6 -14 -10 -14 -10 -3 5 8 9 11 21 8 27 -7 11 20 8 31 -4z
m958 5 c3 -5 -1 -10 -10 -10 -9 0 -13 5 -10 10 3 6 8 10 10 10 2 0 7 -4 10
-10z m457 -8 c-7 -2 -9 -9 -6 -14 4 -7 2 -8 -4 -4 -6 4 -9 13 -6 21 4 8 11 12
17 8 8 -5 7 -8 -1 -11z m-775 -39 c-6 -13 -16 -22 -23 -19 -6 2 -18 -13 -27
-35 -10 -25 -12 -39 -5 -37 6 2 12 12 14 22 1 10 8 24 15 30 9 8 9 6 1 -9 -5
-11 -10 -24 -10 -30 1 -5 -9 -15 -20 -21 -17 -8 -19 -13 -9 -23 9 -10 8 -11
-7 -5 -13 5 -17 4 -12 -4 5 -8 1 -10 -11 -5 -16 6 -16 5 -4 -10 12 -16 8 -22
-13 -18 -5 1 -6 -5 -3 -12 4 -11 0 -13 -15 -9 -15 4 -17 7 -6 13 7 5 9 9 4 9
-5 0 -1 9 8 19 11 12 14 21 7 26 -6 3 -11 11 -11 16 0 6 4 8 9 5 10 -6 29 13
29 29 0 5 6 11 13 14 8 2 4 -11 -9 -33 -12 -20 -18 -36 -13 -36 10 0 37 61 33
74 -2 5 7 19 19 32 17 18 19 27 11 37 -17 20 -4 28 23 15 20 -9 22 -14 12 -35z
m310 12 c0 -8 -4 -15 -9 -15 -4 0 1 -9 12 -20 25 -25 26 -38 3 -35 -30 3 -53
17 -47 27 4 6 10 5 16 -3 7 -11 9 -9 7 6 -3 35 1 55 9 55 5 0 9 -7 9 -15z
m1120 0 c0 -8 -4 -12 -9 -9 -5 3 -6 10 -3 15 9 13 12 11 12 -6z m-650 -40 c0
-8 -4 -15 -9 -15 -10 0 -11 14 -1 23 9 10 10 9 10 -8z m-1463 -3 c3 -5 -1 -9
-9 -9 -8 0 -12 4 -9 9 3 4 7 8 9 8 2 0 6 -4 9 -8z m-29 -32 c-3 -5 -14 -10
-23 -9 -14 0 -13 2 3 9 27 11 27 11 20 0z m-56 -83 c-2 -1 -13 -9 -24 -17 -19
-14 -19 -14 -6 3 7 9 18 17 24 17 6 0 8 -1 6 -3z m1005 -40 c-3 -9 -14 -17
-23 -17 -14 1 -14 2 2 11 9 5 17 15 17 21 0 7 -5 7 -14 -1 -10 -8 -16 -9 -21
-1 -4 6 -1 9 7 8 7 -2 12 4 10 12 -3 13 -1 13 13 -1 9 -9 13 -23 9 -32z m353
-19 c-3 -8 -6 -5 -6 6 -1 11 2 17 5 13 3 -3 4 -12 1 -19z m-711 -6 c1 -7 0 -8
-3 -2 -2 5 -9 10 -14 10 -6 0 -8 -4 -4 -9 3 -5 1 -12 -5 -16 -6 -4 -7 -11 -4
-17 4 -7 2 -8 -5 -4 -6 4 -9 12 -6 17 3 5 -1 6 -9 3 -14 -5 -14 -8 -1 -21 18
-17 18 -20 3 -29 -7 -4 -8 -3 -4 4 4 7 3 12 -2 12 -16 0 -23 31 -11 46 6 8 15
12 19 9 5 -3 12 -1 15 5 8 14 28 8 31 -8z m304 -28 c0 -8 5 -12 10 -9 6 3 10
2 10 -4 0 -5 -6 -11 -12 -14 -9 -3 -7 -9 7 -20 11 -8 24 -13 29 -10 5 4 6 1 2
-6 -11 -18 -51 11 -52 37 -1 11 -4 28 -7 37 -4 9 -3 14 3 10 6 -3 10 -13 10
-21z m30 22 c0 -3 -4 -8 -10 -11 -5 -3 -10 -1 -10 4 0 6 5 11 10 11 6 0 10 -2
10 -4z m14 -18 c-6 -20 -5 -21 10 -9 10 9 16 10 16 2 0 -6 -4 -11 -10 -11 -5
0 -8 -6 -6 -12 1 -7 1 -9 -2 -4 -2 4 -8 2 -13 -5 -5 -9 -7 -3 -5 16 5 44 6 45
12 45 3 0 2 -10 -2 -22z m369 5 c3 -5 -5 -8 -18 -8 -13 0 -21 3 -18 8 2 4 10
7 18 7 8 0 16 -3 18 -7z m-1446 -20 c-4 -3 -1 -13 6 -22 11 -14 10 -14 -5 -2
-21 15 -23 31 -6 31 6 0 8 -3 5 -7z m1013 -3 c0 -5 -5 -10 -11 -10 -5 0 -7 5
-4 10 3 6 8 10 11 10 2 0 4 -4 4 -10z m8 -45 c11 -13 22 -21 26 -17 4 3 4 -2
0 -12 -7 -18 -7 -18 -17 0 -6 11 -19 27 -30 37 -11 9 -15 17 -9 17 6 0 19 -11
30 -25z m-30 -1 c-3 -3 5 -16 18 -29 13 -13 24 -30 24 -37 0 -7 -8 -1 -17 12
-18 27 -33 40 -47 40 -5 0 0 -10 12 -23 12 -13 22 -27 22 -31 0 -4 -12 5 -26
21 -24 26 -24 28 -8 40 18 13 32 18 22 7z m-23 -61 c17 -13 17 -15 2 -10 -23
9 -42 -36 -26 -61 8 -12 9 -13 6 -2 -2 8 0 24 4 35 l9 20 -3 -20 c-2 -11 3
-33 10 -50 12 -26 12 -28 0 -13 -8 10 -17 15 -20 11 -4 -3 -2 -12 4 -20 11
-12 2 -18 -23 -14 -4 0 -6 -8 -5 -19 1 -23 12 -26 21 -7 3 6 3 1 0 -12 -5 -18
-3 -22 7 -15 12 7 12 5 0 -9 -13 -17 -36 -14 -26 4 4 5 -1 12 -10 15 -9 4 -14
12 -11 20 3 7 -2 18 -10 24 -8 7 -14 8 -14 3 0 -5 -7 -10 -15 -10 -20 0 -19 9
4 33 10 11 22 31 26 43 4 14 12 20 22 17 9 -4 13 -1 10 6 -2 7 3 19 12 26 14
12 14 13 -2 8 -11 -3 -16 -2 -12 4 8 14 16 12 40 -7z m59 -34 c3 -3 -8 -5 -24
-4 -17 0 -30 3 -30 8 0 8 45 5 54 -4z m-27 -25 c-3 -3 -12 -4 -19 -1 -8 3 -5
6 6 6 11 1 17 -2 13 -5z m-437 -38 c0 -3 -4 -8 -10 -11 -5 -3 -10 -1 -10 4 0
6 5 11 10 11 6 0 10 -2 10 -4z m415 -50 c0 -15 -4 -21 -9 -16 -5 5 -6 16 -3
24 9 22 12 20 12 -8z m968 -20 c-14 -25 -36 -45 -45 -40 -5 3 -15 2 -21 -3 -7
-4 -5 -1 5 9 10 9 15 18 11 21 -5 2 -2 2 5 1 7 -2 15 2 18 10 3 7 11 13 19 13
8 0 11 -5 8 -11z m-988 -46 c-3 -5 -1 -10 5 -10 6 0 9 -4 6 -9 -4 -5 0 -12 6
-14 10 -4 10 -6 0 -6 -7 -1 -15 6 -18 14 -6 14 -8 13 -21 -2 -16 -19 -7 3 10
25 11 14 21 16 12 2z m-257 -25 c-3 -3 -9 2 -12 12 -6 14 -5 15 5 6 7 -7 10
-15 7 -18z m299 -31 c-3 -3 -12 -4 -19 -1 -8 3 -5 6 6 6 11 1 17 -2 13 -5z
m802 -70 c21 -3 22 -4 16 -15 -9 -14 -45 19 -44 40 0 12 3 11 8 -4 5 -11 13
-21 20 -21z m-186 -124 c4 0 5 5 1 12 -4 7 -3 8 5 4 8 -6 9 -12 2 -20 -6 -7
-10 -15 -8 -17 1 -2 -6 4 -15 13 -10 9 -18 21 -18 25 0 4 5 2 12 -5 7 -7 16
-12 21 -12z"/>
<path d="M389 3043 c-13 -16 -12 -17 4 -4 9 7 17 15 17 17 0 8 -8 3 -21 -13z"/>
<path d="M2816 3022 c-4 -4 -16 -8 -27 -8 -36 -3 -39 -4 -39 -18 0 -8 5 -18
12 -22 8 -5 9 -2 5 9 -3 9 -2 19 3 22 5 3 11 -3 13 -12 4 -15 5 -15 6 2 1 17
3 18 11 5 7 -11 10 -11 10 -2 0 7 4 11 9 7 5 -3 12 -1 15 4 8 12 -9 23 -18 13z"/>
<path d="M2830 2978 c0 -4 4 -8 9 -8 6 0 12 4 15 8 3 5 -1 9 -9 9 -8 0 -15 -4
-15 -9z"/>
<path d="M2895 2969 c-4 -6 -5 -12 -2 -15 2 -3 7 2 10 11 7 17 1 20 -8 4z"/>
<path d="M2919 2953 c-13 -16 -12 -17 4 -4 16 13 21 21 13 21 -2 0 -10 -8 -17
-17z"/>
<path d="M2770 2946 c0 -2 7 -7 16 -10 8 -3 12 -2 9 4 -6 10 -25 14 -25 6z"/>
<path d="M2651 2787 c2 -1 13 -9 24 -17 19 -14 19 -14 6 3 -7 9 -18 17 -24 17
-6 0 -8 -1 -6 -3z"/>
<path d="M2875 2780 c-16 -7 -17 -9 -3 -9 9 -1 20 4 23 9 7 11 7 11 -20 0z"/>
<path d="M2633 2755 c0 -8 4 -12 9 -9 5 3 6 10 3 15 -9 13 -12 11 -12 -6z"/>
<path d="M2756 2747 c3 -10 9 -15 12 -12 3 3 0 11 -7 18 -10 9 -11 8 -5 -6z"/>
<path d="M2499 2681 c-20 -22 -23 -31 -13 -35 8 -3 13 0 11 7 -1 7 8 12 20 11
17 0 20 3 13 16 -5 10 -6 20 -3 24 3 3 4 6 2 6 -3 0 -16 -13 -30 -29z"/>
<path d="M2816 2696 c6 -15 4 -17 -6 -11 -9 6 -11 4 -5 -4 5 -9 10 -10 18 -2
8 8 7 14 -2 24 -10 10 -11 8 -5 -7z"/>
<path d="M2514 2646 c1 -8 5 -18 8 -22 4 -3 5 1 4 10 -1 8 -5 18 -8 22 -4 3
-5 -1 -4 -10z"/>
<path d="M2749 2643 c-8 -9 -9 -14 -2 -10 6 4 13 1 16 -5 3 -7 4 -3 4 10 -1
26 -1 26 -18 5z"/>
<path d="M2780 2619 c-7 -11 -9 -23 -6 -27 3 -3 6 0 6 6 0 6 7 18 16 26 8 9
11 16 5 16 -6 0 -15 -9 -21 -21z"/>
<path d="M2655 2551 c-3 -5 -2 -12 3 -15 5 -3 9 1 9 9 0 17 -3 19 -12 6z"/>
<path d="M2613 2511 c0 -11 5 -18 9 -15 4 3 5 11 1 19 -7 21 -12 19 -10 -4z"/>
<path d="M2546 2438 c3 -5 10 -6 15 -3 13 9 11 12 -6 12 -8 0 -12 -4 -9 -9z"/>
<path d="M2649 2438 c15 -20 2 -25 -17 -6 -7 7 -13 9 -13 5 -1 -4 -2 -13 -3
-19 -1 -7 -7 -12 -13 -11 -6 1 -9 -10 -8 -27 1 -17 -1 -30 -6 -30 -5 0 -6 -7
-3 -15 4 -8 1 -15 -5 -15 -6 0 -11 5 -11 11 0 5 -4 8 -9 4 -11 -6 -10 -45 1
-45 4 0 8 4 8 9 0 5 9 13 20 16 11 4 17 11 14 17 -3 5 5 22 18 36 48 53 50 58
31 73 -16 13 -17 12 -4 -3z m-9 -32 c0 -7 -9 -21 -19 -30 -16 -14 -19 -15 -17
-3 1 8 7 21 14 29 6 8 8 19 4 23 -4 5 -1 5 6 1 6 -4 12 -13 12 -20z"/>
<path d="M2309 2413 c-13 -17 -13 -17 5 -3 18 14 19 13 12 -5 -6 -16 -5 -18 5
-7 9 8 10 15 3 22 -8 8 -15 5 -25 -7z"/>
<path d="M2550 2380 c0 -6 7 -10 15 -10 8 0 15 2 15 4 0 2 -7 6 -15 10 -8 3
-15 1 -15 -4z"/>
<path d="M2310 2370 c-9 -6 -10 -10 -3 -10 6 0 15 5 18 10 8 12 4 12 -15 0z"/>
<path d="M2466 2358 c3 -5 10 -6 15 -3 13 9 11 12 -6 12 -8 0 -12 -4 -9 -9z"/>
<path d="M2333 2335 c0 -8 4 -12 9 -9 5 3 6 10 3 15 -9 13 -12 11 -12 -6z"/>
<path d="M2264 2304 c-18 -14 -18 -15 4 -4 12 6 22 13 22 15 0 8 -5 6 -26 -11z"/>
<path d="M2517 2309 c7 -7 15 -10 18 -7 3 3 -2 9 -12 12 -14 6 -15 5 -6 -5z"/>
<path d="M2490 2280 c-9 -6 -10 -10 -3 -10 6 0 15 5 18 10 8 12 4 12 -15 0z"/>
<path d="M2205 2249 c-4 -6 -5 -12 -2 -15 2 -3 7 2 10 11 7 17 1 20 -8 4z"/>
<path d="M2461 2234 c0 -11 3 -14 6 -6 3 7 2 16 -1 19 -3 4 -6 -2 -5 -13z"/>
<path d="M2486 2228 c3 -5 10 -6 15 -3 13 9 11 12 -6 12 -8 0 -12 -4 -9 -9z"/>
<path d="M2270 2221 c0 -6 4 -13 10 -16 6 -3 7 1 4 9 -7 18 -14 21 -14 7z"/>
<path d="M2180 2200 c-8 -5 -10 -10 -5 -10 6 0 17 5 25 10 8 5 11 10 5 10 -5
0 -17 -5 -25 -10z"/>
<path d="M2230 2200 c0 -5 5 -10 11 -10 5 0 7 5 4 10 -3 6 -8 10 -11 10 -2 0
-4 -4 -4 -10z"/>
<path d="M2195 2140 c-3 -5 -1 -10 4 -10 6 0 11 5 11 10 0 6 -2 10 -4 10 -3 0
-8 -4 -11 -10z"/>
<path d="M2330 2085 c-7 -9 -8 -15 -2 -15 5 0 12 7 16 15 3 8 4 15 2 15 -2 0
-9 -7 -16 -15z"/>
<path d="M2205 2060 c-3 -6 1 -7 9 -4 18 7 21 14 7 14 -6 0 -13 -4 -16 -10z"/>
<path d="M2253 2047 c0 -7 9 -14 19 -14 10 -1 18 3 18 9 0 6 -3 8 -7 5 -3 -4
-11 -2 -18 3 -8 7 -12 6 -12 -3z"/>
<path d="M3305 2790 c-3 -6 1 -7 9 -4 18 7 21 14 7 14 -6 0 -13 -4 -16 -10z"/>
<path d="M3240 2705 c-7 -9 -8 -15 -2 -15 5 0 12 7 16 15 3 8 4 15 2 15 -2 0
-9 -7 -16 -15z"/>
<path d="M3224 2648 l-19 -23 23 19 c12 11 22 21 22 23 0 8 -8 2 -26 -19z"/>
<path d="M3184 2607 c0 -15 6 -23 14 -20 10 4 10 9 0 22 -7 9 -13 17 -14 19
-1 2 -1 -8 0 -21z"/>
<path d="M3150 2562 c0 -8 -5 -10 -12 -6 -8 5 -9 2 -5 -9 4 -10 0 -20 -10 -25
-14 -8 -13 -10 1 -15 10 -4 15 -3 12 2 -6 9 18 34 25 26 3 -2 10 5 17 15 7 12
8 20 2 20 -5 0 -10 -6 -10 -12 0 -9 -4 -8 -10 2 -7 11 -10 11 -10 2z"/>
<path d="M3038 2429 c-13 -17 -23 -35 -23 -39 0 -5 -9 -15 -19 -23 -13 -10
-15 -16 -8 -21 16 -10 34 2 26 16 -5 7 -1 9 9 5 18 -7 33 8 17 18 -17 10 -11
19 20 33 33 15 38 27 15 36 -9 3 -23 -6 -37 -25z m32 17 c0 -2 -8 -10 -17 -17
-16 -13 -17 -12 -4 4 13 16 21 21 21 13z"/>
<path d="M2932 2294 c-26 -27 -31 -38 -22 -49 14 -16 -1 -27 -27 -19 -13 4
-15 3 -4 -4 10 -7 10 -11 1 -17 -9 -6 -9 -9 1 -16 17 -10 72 19 66 34 -19 46
-19 46 0 43 10 -2 29 1 41 8 l23 12 -26 12 c-14 7 -23 17 -20 22 11 19 0 10
-33 -26z m37 2 c9 -11 9 -16 0 -22 -8 -4 -9 -3 -5 4 4 7 2 12 -3 12 -6 0 -11
-5 -11 -12 0 -6 -2 -9 -5 -6 -5 5 4 38 10 38 1 0 8 -6 14 -14z m-29 -70 c0 -2
-11 -11 -25 -20 -14 -9 -25 -13 -25 -8 0 5 10 14 23 20 27 13 27 13 27 8z"/>
<path d="M2836 2171 c-4 -5 -2 -13 4 -16 8 -5 7 -12 -2 -23 -10 -12 -10 -14 0
-8 7 4 12 2 12 -4 0 -6 5 -8 11 -5 6 4 8 10 5 13 -10 9 15 31 30 25 8 -3 14
-1 14 5 0 17 -30 23 -36 7 -4 -8 -10 -15 -16 -15 -5 0 -7 4 -3 9 3 5 1 12 -4
15 -5 4 -12 2 -15 -3z"/>
<path d="M2784 2091 c6 -9 -23 -39 -31 -33 -3 2 -7 1 -10 -2 -4 -3 -1 -6 6 -6
7 0 10 -4 6 -9 -10 -17 13 -21 26 -4 8 9 13 18 12 20 -7 9 -2 23 7 18 6 -3 10
-2 10 3 0 6 -7 13 -16 16 -8 3 -13 2 -10 -3z"/>
<path d="M2705 1957 c2 -20 7 -23 35 -18 5 0 7 8 3 16 -3 9 -8 13 -11 11 -3
-3 -10 -1 -17 4 -8 7 -11 3 -10 -13z"/>
<path d="M2670 1921 c0 -8 -3 -11 -6 -8 -4 3 -15 2 -26 -4 -11 -6 -17 -13 -14
-16 3 -4 1 -12 -6 -20 -20 -25 1 -26 37 -2 38 26 39 27 25 49 -8 12 -10 12
-10 1z m-2 -28 c-6 -8 -21 -19 -32 -24 -20 -10 -21 -10 -2 5 14 12 16 16 5 16
-11 0 -11 2 -1 8 7 5 19 9 27 9 11 0 12 -3 3 -14z"/>
<path d="M2624 1838 c-4 -7 -3 -8 4 -4 8 5 10 2 6 -8 -3 -9 -9 -14 -12 -13 -4
1 -7 -1 -7 -4 0 -3 -6 -13 -13 -22 -10 -12 -10 -17 -1 -23 7 -4 9 -3 6 3 -4 6
7 22 24 37 16 15 27 31 24 36 -8 13 -22 13 -31 -2z"/>
<path d="M3625 2681 c-3 -6 3 -9 14 -8 11 0 17 5 15 9 -7 11 -22 10 -29 -1z"/>
<path d="M3640 2606 c0 -2 7 -7 16 -10 8 -3 12 -2 9 4 -6 10 -25 14 -25 6z"/>
<path d="M3816 2598 c3 -5 10 -6 15 -3 13 9 11 12 -6 12 -8 0 -12 -4 -9 -9z"/>
<path d="M3756 2587 c3 -10 9 -15 12 -12 3 3 0 11 -7 18 -10 9 -11 8 -5 -6z"/>
<path d="M3754 2542 c4 -3 14 -7 22 -8 9 -1 13 0 10 4 -4 3 -14 7 -22 8 -9 1
-13 0 -10 -4z"/>
<path d="M3590 2530 c-9 -6 -10 -10 -3 -10 6 0 15 5 18 10 8 12 4 12 -15 0z"/>
<path d="M3715 2520 c-3 -5 -1 -10 4 -10 6 0 11 5 11 10 0 6 -2 10 -4 10 -3 0
-8 -4 -11 -10z"/>
<path d="M3492 2478 c-9 -9 -9 -15 0 -25 8 -11 7 -12 -6 -7 -9 3 -16 2 -16 -3
0 -16 32 -11 50 7 16 16 16 18 0 28 -13 8 -21 7 -28 0z m22 -19 c-3 -5 -10 -7
-15 -3 -5 3 -7 10 -3 15 3 5 10 7 15 3 5 -3 7 -10 3 -15z"/>
<path d="M3431 2406 c-9 -10 -8 -15 2 -19 8 -3 13 3 13 14 0 23 0 23 -15 5z"/>
<path d="M3553 2405 c0 -8 4 -12 9 -9 5 3 6 10 3 15 -9 13 -12 11 -12 -6z"/>
<path d="M3500 2400 c-8 -5 -10 -10 -5 -10 6 0 17 5 25 10 8 5 11 10 5 10 -5
0 -17 -5 -25 -10z"/>
<path d="M3599 2393 c-13 -16 -12 -17 4 -4 16 13 21 21 13 21 -2 0 -10 -8 -17
-17z"/>
<path d="M1140 2225 c-7 -8 -16 -13 -19 -10 -4 2 -8 -3 -8 -11 0 -11 6 -9 24
8 13 12 23 23 23 25 0 7 -8 2 -20 -12z"/>
<path d="M3986 2171 c-14 -15 -15 -21 -4 -27 7 -4 10 -3 5 1 -4 5 0 17 10 27
9 10 14 18 11 18 -3 0 -13 -9 -22 -19z"/>
<path d="M3830 2061 c0 -6 4 -13 10 -16 6 -3 7 1 4 9 -7 18 -14 21 -14 7z"/>
<path d="M3857 1996 c-4 -10 -3 -25 1 -33 12 -21 22 5 12 31 -6 18 -7 18 -13
2z"/>
<path d="M3746 1838 c3 -4 9 -8 15 -8 5 0 9 4 9 8 0 5 -7 9 -15 9 -8 0 -12 -4
-9 -9z"/>
<path d="M3189 2073 l-24 -28 28 24 c25 23 32 31 24 31 -2 0 -14 -12 -28 -27z"/>
<path d="M3429 1976 c7 -8 9 -21 5 -27 -4 -8 -3 -9 4 -5 17 10 15 33 -4 40
-14 5 -15 4 -5 -8z"/>
<path d="M3336 1802 c-3 -5 1 -9 9 -9 8 0 12 4 9 9 -3 4 -7 8 -9 8 -2 0 -6 -4
-9 -8z"/>
<path d="M3513 1533 c-3 -10 -13 -27 -22 -37 -9 -11 -11 -16 -4 -13 6 4 14 3
18 -2 7 -12 45 -10 45 2 0 5 -10 6 -22 2 -21 -5 -21 -5 2 10 l25 16 -25 -7
c-24 -6 -24 -6 -5 10 12 9 15 15 7 16 -7 0 -10 5 -7 10 3 6 4 10 0 10 -3 0 -8
-8 -12 -17z"/>
<path d="M4519 1403 c-13 -16 -12 -17 4 -4 9 7 17 15 17 17 0 8 -8 3 -21 -13z"/>
<path d="M1115 4050 c3 -5 8 -10 11 -10 2 0 4 5 4 10 0 6 -5 10 -11 10 -5 0
-7 -4 -4 -10z"/>
<path d="M1563 4005 c0 -8 4 -15 9 -15 4 0 8 4 8 9 0 6 -4 12 -8 15 -5 3 -9
-1 -9 -9z"/>
<path d="M1050 3998 c0 -11 12 -10 30 2 12 7 10 9 -8 7 -12 0 -22 -5 -22 -9z"/>
<path d="M1650 3995 c0 -8 4 -15 10 -15 5 0 7 7 4 15 -4 8 -8 15 -10 15 -2 0
-4 -7 -4 -15z"/>
<path d="M1636 3955 c4 -10 2 -13 -8 -10 -9 4 -15 0 -15 -9 0 -8 6 -12 15 -8
11 4 13 1 7 -8 -5 -8 -4 -11 3 -6 6 3 13 2 17 -4 3 -5 14 -10 23 -10 12 0 9 4
-8 13 -17 9 -24 20 -22 35 2 12 -1 22 -7 22 -6 0 -8 -7 -5 -15z"/>
<path d="M1668 3963 c7 -3 16 -2 19 1 4 3 -2 6 -13 5 -11 0 -14 -3 -6 -6z"/>
<path d="M1660 3941 c0 -10 19 -25 25 -20 1 2 -3 10 -11 17 -8 7 -14 8 -14 3z"/>
<path d="M1680 3946 c0 -2 7 -7 16 -10 8 -3 12 -2 9 4 -6 10 -25 14 -25 6z"/>
<path d="M1726 3938 c3 -5 10 -6 15 -3 13 9 11 12 -6 12 -8 0 -12 -4 -9 -9z"/>
<path d="M1017 3923 c3 -7 6 -13 8 -13 1 0 7 6 13 13 8 10 6 13 -7 13 -11 0
-17 -6 -14 -13z"/>
<path d="M996 3894 c-3 -8 -10 -12 -16 -9 -5 3 -10 2 -10 -4 0 -18 36 -7 37
11 2 22 -3 23 -11 2z"/>
<path d="M1634 3885 c3 -9 -1 -18 -10 -22 -13 -5 -13 -7 -2 -14 11 -7 10 -11
-2 -19 -13 -9 -13 -10 0 -10 10 0 11 -3 4 -8 -13 -8 -15 -42 -2 -42 11 0 6
-23 -7 -32 -6 -5 -4 -8 5 -8 13 0 13 -1 0 -10 -8 -5 -10 -10 -5 -10 6 0 11 -9
12 -20 1 -13 -2 -18 -10 -13 -7 4 -6 0 2 -10 7 -9 9 -17 4 -17 -5 0 -9 -13 -9
-30 0 -16 3 -30 8 -30 5 0 1 -11 -7 -24 -11 -17 -13 -26 -5 -31 8 -5 8 -10 0
-20 -8 -10 -8 -15 2 -21 7 -4 10 -4 6 1 -4 4 0 14 8 22 8 8 12 19 9 24 -4 5
-1 9 5 9 7 0 9 -8 5 -20 -3 -11 -2 -20 4 -20 16 0 24 21 12 33 -8 8 -6 16 6
30 10 10 13 18 8 17 -22 -5 -27 1 -15 15 7 8 17 12 23 8 6 -3 7 -1 3 6 -6 9
-11 9 -22 0 -16 -13 -19 2 -3 18 8 8 5 13 -11 18 -18 6 -20 9 -9 16 12 8 12
10 0 18 -11 7 -9 10 8 16 19 6 20 9 9 22 -11 14 -10 15 10 9 15 -5 22 -3 22 5
0 7 -3 9 -6 6 -4 -3 -15 -2 -25 4 -16 8 -17 14 -8 30 8 16 7 23 -6 33 -16 11
-16 13 1 27 16 12 17 12 11 -3 -3 -10 -2 -18 3 -18 6 0 10 5 10 11 0 5 6 7 13
4 6 -4 4 0 -6 9 -11 8 -26 12 -35 8 -15 -5 -15 -3 -4 11 8 8 21 13 30 11 14
-5 13 -2 -2 10 -25 20 -40 20 -32 1z m9 -101 c-4 -12 -8 -13 -14 -3 -9 15 -2
32 11 24 5 -3 6 -13 3 -21z m4 -54 c2 -11 -1 -20 -5 -20 -4 0 -8 11 -8 25 0
28 8 24 13 -5z m3 -89 c0 -5 -6 -12 -12 -14 -10 -4 -9 -8 2 -16 8 -6 11 -11 6
-11 -5 0 -3 -7 4 -15 11 -14 7 -19 -12 -16 -8 1 -12 -15 -9 -32 1 -5 -3 -5 -9
-2 -8 5 -7 14 3 29 10 15 12 28 6 38 -10 18 -2 48 12 48 5 0 9 -4 9 -9z"/>
<path d="M1705 3820 c-3 -6 1 -7 9 -4 18 7 21 14 7 14 -6 0 -13 -4 -16 -10z"/>
<path d="M900 3800 c0 -5 5 -10 11 -10 5 0 7 5 4 10 -3 6 -8 10 -11 10 -2 0
-4 -4 -4 -10z"/>
<path d="M1667 3777 c-3 -8 0 -14 7 -14 7 0 13 6 13 14 0 7 -4 13 -8 13 -4 0
-9 -6 -12 -13z"/>
<path d="M1730 3780 c0 -5 5 -10 11 -10 5 0 7 5 4 10 -3 6 -8 10 -11 10 -2 0
-4 -4 -4 -10z"/>
<path d="M795 3751 c-3 -5 -2 -12 3 -15 5 -3 9 1 9 9 0 17 -3 19 -12 6z"/>
<path d="M2175 3729 c-4 -6 -5 -12 -2 -15 2 -3 7 2 10 11 7 17 1 20 -8 4z"/>
<path d="M2135 3700 c3 -5 8 -10 11 -10 2 0 4 5 4 10 0 6 -5 10 -11 10 -5 0
-7 -4 -4 -10z"/>
<path d="M2095 3680 c-3 -5 -1 -10 4 -10 6 0 11 5 11 10 0 6 -2 10 -4 10 -3 0
-8 -4 -11 -10z"/>
<path d="M1666 3672 c-3 -5 1 -9 9 -9 8 0 12 4 9 9 -3 4 -7 8 -9 8 -2 0 -6 -4
-9 -8z"/>
<path d="M1715 3650 c10 -11 20 -20 23 -20 3 0 -3 9 -13 20 -10 11 -20 20 -23
20 -3 0 3 -9 13 -20z"/>
<path d="M1680 3646 c0 -2 8 -10 18 -17 15 -13 16 -12 3 4 -13 16 -21 21 -21
13z"/>
<path d="M760 3600 c-8 -5 -10 -10 -5 -10 6 0 17 5 25 10 8 5 11 10 5 10 -5 0
-17 -5 -25 -10z"/>
<path d="M1916 3591 c4 -15 2 -21 -4 -17 -6 3 -13 2 -17 -4 -4 -6 -11 -7 -17
-4 -7 4 -8 2 -4 -4 4 -7 3 -12 -3 -12 -5 0 -12 6 -15 13 -3 6 -4 3 -1 -9 5
-21 0 -23 -47 -25 -10 0 -18 -5 -18 -11 0 -5 -8 -7 -17 -4 -15 5 -15 4 1 -9
17 -13 22 -13 37 1 9 8 23 16 31 18 7 1 19 5 26 9 6 5 12 5 12 0 1 -4 7 3 15
17 9 15 15 19 15 10 0 -12 3 -11 11 3 7 12 7 22 -1 35 -9 14 -10 13 -4 -7z"/>
<path d="M790 3590 c-8 -5 -12 -12 -9 -15 4 -3 12 1 19 10 14 17 11 19 -10 5z"/>
<path d="M746 3557 c-16 -17 -16 -19 -3 -14 21 8 29 -5 12 -20 -11 -10 -14
-10 -18 0 -4 9 -7 9 -17 0 -11 -10 -11 -15 0 -28 8 -9 8 -15 2 -15 -6 0 -14 5
-17 10 -3 6 -12 10 -18 10 -7 0 -6 -4 3 -10 8 -5 16 -14 16 -20 1 -5 2 -12 3
-15 0 -3 10 -1 22 6 15 8 18 14 10 22 -13 13 -15 31 -2 23 13 -8 39 26 36 47
-5 26 -7 26 -29 4z"/>
<path d="M1682 3564 c-7 -8 -8 -14 -3 -14 10 0 25 19 20 25 -2 1 -10 -3 -17
-11z"/>
<path d="M696 3535 c-9 -26 -7 -32 5 -12 6 10 9 21 6 23 -2 3 -7 -2 -11 -11z"/>
<path d="M2753 3535 c0 -8 4 -12 9 -9 5 3 6 10 3 15 -9 13 -12 11 -12 -6z"/>
<path d="M2727 3526 c-3 -8 0 -17 7 -19 10 -4 12 1 9 14 -6 23 -9 24 -16 5z"/>
<path d="M2640 3518 c0 -4 1 -10 3 -12 1 -2 -7 -13 -17 -25 -16 -18 -17 -21
-3 -21 9 0 19 5 22 10 4 7 13 6 26 -1 12 -6 23 -8 26 -6 2 3 -4 8 -15 11 -13
4 -18 14 -17 30 2 14 -2 23 -11 23 -8 0 -14 -4 -14 -9z m14 -17 c3 -5 -2 -15
-12 -22 -15 -12 -16 -12 -5 2 7 9 10 19 6 22 -3 4 -4 7 0 7 3 0 8 -4 11 -9z"/>
<path d="M660 3480 c0 -6 7 -10 15 -10 8 0 15 2 15 4 0 2 -7 6 -15 10 -8 3
-15 1 -15 -4z"/>
<path d="M2692 3486 c2 -1 12 -8 22 -16 11 -8 17 -10 13 -3 -4 6 -1 13 5 16 7
2 0 4 -15 4 -15 0 -27 0 -25 -1z"/>
<path d="M1613 3464 c0 -8 3 -14 6 -14 8 0 37 19 31 21 -3 0 -12 2 -21 4 -9 1
-16 -4 -16 -11z"/>
<path d="M2674 3426 c1 -8 5 -18 8 -22 4 -3 5 1 4 10 -1 8 -5 18 -8 22 -4 3
-5 -1 -4 -10z"/>
<path d="M613 3405 c-9 -10 -6 -12 13 -12 13 0 24 4 24 9 0 5 -4 7 -9 4 -5 -4
-11 -2 -13 3 -1 5 -8 3 -15 -4z"/>
<path d="M573 3372 c-8 -14 -8 -19 1 -19 7 0 13 9 13 19 1 10 1 18 0 18 -1 0
-7 -8 -14 -18z"/>
<path d="M2620 3360 c-8 -5 -10 -10 -5 -10 6 0 17 5 25 10 8 5 11 10 5 10 -5
0 -17 -5 -25 -10z"/>
<path d="M2643 3343 c-7 -2 -13 -9 -13 -15 0 -7 5 -7 13 1 8 6 18 7 22 3 5 -4
5 -1 1 6 -4 6 -8 12 -9 11 -1 0 -8 -3 -14 -6z"/>
<path d="M2647 3299 c7 -7 15 -10 18 -7 3 3 -2 9 -12 12 -14 6 -15 5 -6 -5z"/>
<path d="M2710 3305 c0 -5 5 -17 10 -25 5 -8 10 -10 10 -5 0 6 -5 17 -10 25
-5 8 -10 11 -10 5z"/>
<path d="M506 3282 c-3 -5 1 -9 9 -9 8 0 15 4 15 9 0 4 -4 8 -9 8 -6 0 -12 -4
-15 -8z"/>
<path d="M2414 3173 c-19 -25 -24 -38 -16 -41 10 -3 10 -7 0 -20 -9 -12 -7
-12 9 2 12 10 21 23 20 30 -1 6 10 11 26 10 15 -1 25 1 22 4 -7 7 38 38 50 34
6 -2 6 0 2 4 -12 12 -57 13 -57 1 0 -5 -6 -4 -14 2 -11 9 -19 3 -42 -26z m70
18 c17 8 16 6 -4 -10 -13 -10 -28 -17 -33 -14 -12 7 -38 -18 -30 -30 4 -6 1
-7 -7 -2 -10 6 -7 14 13 31 14 12 24 24 23 27 -2 2 2 1 7 -4 6 -4 19 -3 31 2z"/>
<path d="M370 3099 c0 -5 5 -7 10 -4 6 3 10 8 10 11 0 2 -4 4 -10 4 -5 0 -10
-5 -10 -11z"/>
<path d="M2329 3058 c-13 -17 -18 -28 -11 -24 7 4 15 1 18 -9 5 -12 11 -9 31
17 13 18 29 32 34 31 5 -2 9 2 9 7 0 14 -13 13 -28 -2 -9 -9 -12 -9 -12 0 0
21 -18 13 -41 -20z m27 -13 c-15 -15 -16 -15 -12 7 3 13 5 25 5 28 1 2 6 -1
12 -7 9 -9 8 -16 -5 -28z"/>
<path d="M1041 3066 c-9 -10 -8 -15 2 -19 8 -3 13 3 13 14 0 23 0 23 -15 5z"/>
<path d="M1070 3060 c0 -5 5 -10 10 -10 6 0 10 5 10 10 0 6 -4 10 -10 10 -5 0
-10 -4 -10 -10z"/>
<path d="M3326 3037 c3 -10 9 -15 12 -12 3 3 0 11 -7 18 -10 9 -11 8 -5 -6z"/>
<path d="M1031 3033 c-1 -17 16 -25 25 -12 4 7 3 9 -4 5 -5 -3 -13 0 -15 6 -4
9 -6 10 -6 1z"/>
<path d="M1074 3005 c2 -35 11 -39 12 -4 1 16 -2 29 -6 29 -4 0 -6 -11 -6 -25z"/>
<path d="M310 3005 c-7 -9 -11 -17 -9 -20 3 -2 10 5 17 15 14 24 10 26 -8 5z"/>
<path d="M3350 3003 c8 -3 20 -10 26 -14 6 -5 11 -4 11 4 0 7 -12 13 -26 14
-14 1 -19 -1 -11 -4z"/>
<path d="M3395 2960 c3 -5 8 -10 11 -10 2 0 4 5 4 10 0 6 -5 10 -11 10 -5 0
-7 -4 -4 -10z"/>
<path d="M985 2940 c-3 -6 1 -7 9 -4 18 7 21 14 7 14 -6 0 -13 -4 -16 -10z"/>
<path d="M1636 2927 c-16 -12 -16 -13 2 -13 10 0 19 6 19 13 0 7 -1 13 -2 13
-1 0 -9 -6 -19 -13z"/>
<path d="M2250 2918 c0 -5 -6 -6 -12 -2 -7 4 -10 4 -6 -1 5 -5 -4 -24 -18 -42
-14 -19 -23 -37 -20 -40 3 -4 6 0 6 8 0 12 2 11 11 -1 9 -13 10 -13 7 0 -4 23
21 62 35 54 7 -4 9 -4 5 1 -4 4 0 13 8 20 15 11 15 12 0 12 -9 0 -16 -4 -16
-9z"/>
<path d="M1560 2879 c0 -5 5 -7 10 -4 6 3 10 8 10 11 0 2 -4 4 -10 4 -5 0 -10
-5 -10 -11z"/>
<path d="M2174 2802 c4 -7 -2 -16 -17 -21 -13 -5 -24 -16 -24 -25 0 -8 4 -13
9 -10 5 3 5 11 1 17 -3 7 4 3 17 -8 16 -14 21 -16 18 -5 -3 8 -1 23 3 32 6 11
5 19 -3 24 -7 4 -8 3 -4 -4z"/>
<path d="M155 2775 c4 -14 -3 -27 -27 -48 -18 -16 -28 -26 -21 -23 6 4 14 2
18 -4 3 -5 -2 -10 -12 -10 -14 0 -15 -2 -4 -9 14 -9 36 8 57 45 9 16 8 26 -3
45 -10 17 -12 18 -8 4z m-1 -50 c-19 -29 -20 -29 -30 -12 -4 6 -4 9 1 5 5 -5
14 1 22 12 20 29 26 25 7 -5z"/>
<path d="M1475 2770 c-3 -6 1 -7 9 -4 18 7 21 14 7 14 -6 0 -13 -4 -16 -10z"/>
<path d="M125 2760 c-3 -5 -1 -10 4 -10 6 0 11 5 11 10 0 6 -2 10 -4 10 -3 0
-8 -4 -11 -10z"/>
<path d="M96 2733 c-6 -14 -5 -15 5 -6 7 7 10 15 7 18 -3 3 -9 -2 -12 -12z"/>
<path d="M4175 2739 c-4 -6 -5 -12 -2 -15 2 -3 7 2 10 11 7 17 1 20 -8 4z"/>
<path d="M4180 2700 c0 -6 7 -13 15 -16 8 -4 12 -11 9 -16 -4 -6 3 -5 15 1 23
13 29 23 7 15 -7 -3 -21 2 -30 11 -9 9 -16 11 -16 5z"/>
<path d="M4364 2678 l-19 -23 23 19 c12 11 22 21 22 23 0 8 -8 2 -26 -19z"/>
<path d="M1416 2678 c3 -4 11 -5 19 -1 21 7 19 12 -4 10 -11 0 -18 -5 -15 -9z"/>
<path d="M4250 2680 c0 -5 5 -10 11 -10 5 0 7 5 4 10 -3 6 -8 10 -11 10 -2 0
-4 -4 -4 -10z"/>
<path d="M17 2639 c4 -13 8 -18 11 -10 2 7 -1 18 -6 23 -8 8 -9 4 -5 -13z"/>
<path d="M47 2613 c4 -9 2 -14 -3 -10 -6 3 -16 1 -24 -4 -11 -7 -10 -8 8 -6
31 4 48 23 28 30 -11 4 -13 1 -9 -10z"/>
<path d="M4253 2615 c-4 -5 -3 -7 2 -3 4 4 14 3 20 -2 9 -7 14 -7 18 3 6 15
-32 18 -40 2z"/>
<path d="M1326 2558 c3 -4 9 -8 15 -8 5 0 9 4 9 8 0 5 -7 9 -15 9 -8 0 -12 -4
-9 -9z"/>
<path d="M6 2502 c-3 -5 1 -9 9 -9 8 0 12 4 9 9 -3 4 -7 8 -9 8 -2 0 -6 -4 -9
-8z"/>
<path d="M1273 2474 c0 -7 5 -11 10 -7 5 3 6 -3 3 -15 -4 -11 -3 -23 1 -25 5
-3 9 9 9 27 0 18 -5 33 -11 33 -6 0 -12 -6 -12 -13z"/>
<path d="M35 2460 c-3 -5 -1 -10 4 -10 6 0 11 5 11 10 0 6 -2 10 -4 10 -3 0
-8 -4 -11 -10z"/>
<path d="M1250 2440 c0 -5 5 -10 10 -10 6 0 10 5 10 10 0 6 -4 10 -10 10 -5 0
-10 -4 -10 -10z"/>
<path d="M5075 2420 c-3 -5 -1 -10 4 -10 6 0 11 5 11 10 0 6 -2 10 -4 10 -3 0
-8 -4 -11 -10z"/>
<path d="M1195 2380 c3 -5 8 -10 11 -10 2 0 4 5 4 10 0 6 -5 10 -11 10 -5 0
-7 -4 -4 -10z"/>
<path d="M5068 2278 c5 -5 16 -8 23 -6 8 3 3 7 -10 11 -17 4 -21 3 -13 -5z"/>
<path d="M4516 2238 c3 -5 10 -6 15 -3 13 9 11 12 -6 12 -8 0 -12 -4 -9 -9z"/>
<path d="M1059 2195 c-1 -3 -2 -11 -3 -17 -1 -7 -7 -12 -12 -11 -6 1 -11 -5
-11 -13 0 -12 3 -12 17 1 19 17 34 20 25 5 -3 -5 -2 -10 4 -10 20 0 21 19 1
25 -11 4 -18 11 -15 16 4 5 4 9 1 9 -3 0 -7 -2 -7 -5z"/>
<path d="M1790 2183 c0 -5 -10 -15 -22 -21 l-23 -10 22 1 c21 1 39 24 28 35
-3 3 -5 1 -5 -5z"/>
<path d="M4373 2165 c0 -8 4 -12 9 -9 5 3 6 10 3 15 -9 13 -12 11 -12 -6z"/>
<path d="M5096 2167 c3 -10 9 -15 12 -12 3 3 0 11 -7 18 -10 9 -11 8 -5 -6z"/>
<path d="M1753 2128 c4 -11 0 -21 -11 -27 -12 -7 -13 -10 -3 -11 11 0 11 -3 0
-17 -12 -16 -11 -16 8 0 14 12 23 15 28 8 3 -6 1 -11 -5 -11 -6 0 -8 -5 -5
-11 4 -6 14 -8 22 -5 9 4 11 2 6 -7 -4 -6 -9 -21 -11 -32 -3 -20 -3 -20 12 0
18 23 21 13 6 -16 -7 -12 -7 -18 -1 -17 5 2 16 -6 24 -16 11 -15 16 -16 22 -6
6 9 4 11 -5 5 -8 -5 -11 -3 -8 6 3 8 -1 26 -9 41 -7 15 -13 30 -13 33 1 23 -2
26 -16 21 -13 -5 -14 -3 -6 6 7 10 3 21 -16 43 -14 17 -23 22 -19 13z m28 -35
c12 -16 12 -17 -2 -6 -9 7 -20 9 -24 5 -5 -4 -5 -1 -1 6 9 16 11 15 27 -5z
m43 -99 c3 -8 2 -12 -4 -9 -6 3 -10 10 -10 16 0 14 7 11 14 -7z"/>
<path d="M4733 2115 c-4 -12 -8 -13 -19 -4 -12 10 -13 9 -8 -5 4 -10 12 -15
19 -12 7 2 18 -1 25 -7 10 -9 11 -9 5 2 -4 7 -2 16 5 21 8 5 7 9 -5 13 -9 4
-18 1 -22 -8z"/>
<path d="M1075 2081 c-3 -5 -2 -12 3 -15 5 -3 9 1 9 9 0 17 -3 19 -12 6z"/>
<path d="M4665 2080 c-3 -5 -1 -10 4 -10 6 0 11 5 11 10 0 6 -2 10 -4 10 -3 0
-8 -4 -11 -10z"/>
<path d="M3250 2059 c0 -5 5 -7 10 -4 6 3 10 8 10 11 0 2 -4 4 -10 4 -5 0 -10
-5 -10 -11z"/>
<path d="M3290 2059 c0 -5 5 -7 10 -4 6 3 10 8 10 11 0 2 -4 4 -10 4 -5 0 -10
-5 -10 -11z"/>
<path d="M4340 2056 c0 -2 7 -7 16 -10 8 -3 12 -2 9 4 -6 10 -25 14 -25 6z"/>
<path d="M1747 2039 c7 -7 15 -10 18 -7 3 3 -2 9 -12 12 -14 6 -15 5 -6 -5z"/>
<path d="M4700 2040 c0 -5 5 -10 11 -10 5 0 7 5 4 10 -3 6 -8 10 -11 10 -2 0
-4 -4 -4 -10z"/>
<path d="M3190 2020 c0 -5 5 -10 10 -10 6 0 10 5 10 10 0 6 -4 10 -10 10 -5 0
-10 -4 -10 -10z"/>
<path d="M3379 2018 c-5 -19 -8 -50 -4 -46 7 7 15 48 9 48 -2 0 -4 -1 -5 -2z"/>
<path d="M3117 1964 c-3 -4 1 -13 9 -21 8 -8 11 -19 8 -25 -4 -7 -2 -8 4 -4 9
5 9 13 1 29 -15 28 -15 28 -22 21z"/>
<path d="M4295 1960 c-3 -5 -1 -10 4 -10 6 0 11 5 11 10 0 6 -2 10 -4 10 -3 0
-8 -4 -11 -10z"/>
<path d="M3186 1918 c3 -5 10 -6 15 -3 13 9 11 12 -6 12 -8 0 -12 -4 -9 -9z"/>
<path d="M3270 1920 c0 -5 5 -10 11 -10 5 0 7 5 4 10 -3 6 -8 10 -11 10 -2 0
-4 -4 -4 -10z"/>
<path d="M3336 1922 c-3 -5 1 -9 9 -9 8 0 12 4 9 9 -3 4 -7 8 -9 8 -2 0 -6 -4
-9 -8z"/>
<path d="M4250 1896 c0 -2 8 -10 18 -17 15 -13 16 -12 3 4 -13 16 -21 21 -21
13z"/>
<path d="M3053 1854 c4 -7 -2 -14 -13 -17 -11 -3 -20 -11 -20 -19 0 -10 2 -10
9 1 5 8 16 11 24 8 16 -6 18 16 2 30 -4 4 -5 3 -2 -3z"/>
<path d="M3096 1822 c-3 -5 1 -9 9 -9 8 0 12 4 9 9 -3 4 -7 8 -9 8 -2 0 -6 -4
-9 -8z"/>
<path d="M4139 1808 c15 -21 31 -23 31 -6 0 6 -3 8 -7 5 -3 -4 -13 -1 -22 6
-14 11 -14 10 -2 -5z"/>
<path d="M3035 1800 c-16 -7 -17 -9 -3 -9 9 -1 20 4 23 9 7 11 7 11 -20 0z"/>
<path d="M2475 1780 c-3 -5 -1 -10 4 -10 6 0 11 5 11 10 0 6 -2 10 -4 10 -3 0
-8 -4 -11 -10z"/>
<path d="M2996 1773 c-4 -9 -3 -20 1 -24 4 -4 9 3 9 17 2 28 -1 31 -10 7z"/>
<path d="M4114 1773 c5 -13 4 -13 -7 -4 -11 9 -17 8 -26 -3 -10 -12 -7 -15 18
-14 20 1 31 6 31 15 0 9 5 11 13 7 6 -4 8 -3 4 1 -14 16 -39 14 -33 -2z"/>
<path d="M2974 1742 c3 -5 0 -13 -6 -15 -9 -4 -10 -6 -1 -6 17 -1 25 16 12 25
-7 4 -9 3 -5 -4z"/>
<path d="M4096 1725 c4 -8 8 -15 10 -15 2 0 4 7 4 15 0 8 -4 15 -10 15 -5 0
-7 -7 -4 -15z"/>
<path d="M3156 1713 c-6 -14 -5 -15 5 -6 7 7 10 15 7 18 -3 3 -9 -2 -12 -12z"/>
<path d="M4113 1685 c0 -8 4 -12 9 -9 5 3 6 10 3 15 -9 13 -12 11 -12 -6z"/>
<path d="M2935 1680 c-3 -5 -1 -10 4 -10 6 0 11 5 11 10 0 6 -2 10 -4 10 -3 0
-8 -4 -11 -10z"/>
<path d="M4050 1680 c0 -5 5 -10 10 -10 6 0 10 5 10 10 0 6 -4 10 -10 10 -5 0
-10 -4 -10 -10z"/>
<path d="M3153 1655 c0 -8 4 -12 9 -9 5 3 6 10 3 15 -9 13 -12 11 -12 -6z"/>
<path d="M2909 1643 c-13 -16 -12 -17 4 -4 16 13 21 21 13 21 -2 0 -10 -8 -17
-17z"/>
<path d="M4003 1646 c-4 -5 -1 -6 5 -2 7 4 12 2 12 -3 0 -6 5 -11 11 -11 5 0
8 4 4 9 -3 5 3 12 12 14 10 3 5 4 -10 4 -16 -1 -31 -6 -34 -11z"/>
<path d="M3964 1595 c-29 -32 -32 -45 -12 -45 4 0 7 5 6 12 -2 6 14 21 35 33
30 18 35 24 22 29 -9 3 -17 6 -18 6 -1 0 -16 -16 -33 -35z m46 21 c0 -2 -7 -7
-16 -10 -8 -3 -12 -2 -9 4 6 10 25 14 25 6z"/>
<path d="M4255 1621 c-3 -5 -2 -12 3 -15 5 -3 9 1 9 9 0 17 -3 19 -12 6z"/>
<path d="M3096 1578 c3 -4 11 -5 19 -1 21 7 19 12 -4 10 -11 0 -18 -5 -15 -9z"/>
<path d="M3988 1579 c-20 -11 -24 -29 -7 -29 5 0 7 5 3 12 -5 7 -2 9 8 6 9 -4
15 0 15 8 0 8 -1 14 -1 14 -1 0 -9 -5 -18 -11z"/>
<path d="M4196 1567 c3 -10 9 -15 12 -12 3 3 0 11 -7 18 -10 9 -11 8 -5 -6z"/>
<path d="M4066 1518 c3 -5 10 -6 15 -3 13 9 11 12 -6 12 -8 0 -12 -4 -9 -9z"/>
<path d="M4210 1520 c0 -5 5 -10 10 -10 6 0 10 5 10 10 0 6 -4 10 -10 10 -5 0
-10 -4 -10 -10z"/>
<path d="M4015 1501 c-3 -5 -2 -12 3 -15 5 -3 9 1 9 9 0 17 -3 19 -12 6z"/>
<path d="M4177 1476 c-4 -10 -1 -13 8 -9 8 3 12 9 9 14 -7 12 -11 11 -17 -5z"/>
<path d="M3480 1433 c0 -6 8 -17 18 -24 16 -13 16 -13 2 6 -8 11 -16 22 -17
24 -2 2 -3 0 -3 -6z"/>
<path d="M3450 1411 c0 -7 -5 -9 -12 -5 -7 5 -8 3 -3 -5 5 -9 10 -10 18 -2 6
6 8 14 4 18 -4 3 -7 1 -7 -6z"/>
<path d="M3386 1363 c-6 -14 -5 -15 5 -6 7 7 10 15 7 18 -3 3 -9 -2 -12 -12z"/>
<path d="M3333 1363 c4 -3 2 -11 -3 -18 -7 -8 -5 -12 5 -12 8 0 12 4 9 9 -3 4
3 8 13 8 15 0 16 2 3 10 -17 11 -37 13 -27 3z"/>
<path d="M4540 1360 c8 -5 20 -10 25 -10 6 0 3 5 -5 10 -8 5 -19 10 -25 10 -5
0 -3 -5 5 -10z"/>
<path d="M4371 1217 c-6 -8 -8 -17 -4 -20 5 -6 -7 -10 -27 -9 -3 0 -11 -6 -17
-13 -10 -11 -9 -13 7 -12 11 1 20 6 20 12 0 5 7 1 16 -10 14 -19 15 -19 12 5
-2 20 1 25 20 24 22 -1 22 -1 6 17 -20 23 -19 22 -33 6z m23 -5 c3 -5 -1 -9
-9 -9 -8 0 -12 4 -9 9 3 4 7 8 9 8 2 0 6 -4 9 -8z"/>
<path d="M4450 1220 c0 -5 5 -10 11 -10 5 0 7 5 4 10 -3 6 -8 10 -11 10 -2 0
-4 -4 -4 -10z"/>
<path d="M4111 1087 c2 -2 11 -8 20 -15 12 -9 16 -9 16 1 0 7 -9 14 -20 14
-11 1 -18 1 -16 0z"/>
</g>
</svg>
